<svg xmlns="http://www.w3.org/2000/svg" width="803" height="259" viewBox="0 0 803 259">
  <g id="baanerTrust" transform="translate(0 0)">
    <path id="Path_1" data-name="Path 1" d="M979.756,552.5H950.243a4.57,4.57,0,0,0-3.5,1.617,7,7,0,1,0,1.806,13.173L951,575.245a4.611,4.611,0,0,0,4.408,3.255h19.188A4.611,4.611,0,0,0,979,575.245l5.163-16.777a4.612,4.612,0,0,0-4.408-5.968ZM945.5,566a5,5,0,0,1,0-10c.091,0,.176.022.267.027a4.563,4.563,0,0,0,.07,2.441l2.112,6.865A4.936,4.936,0,0,1,945.5,566Z" transform="translate(-198.5 -320.5)" fill="#f0f0f0"/>
    <path id="Path_2" data-name="Path 2" d="M260.756,531.5H231.243a4.57,4.57,0,0,0-3.5,1.617,7,7,0,1,0,1.806,13.173L233,575.245a4.611,4.611,0,0,0,4.408,3.255h19.188A4.611,4.611,0,0,0,261,575.245l4.163-37.777a4.612,4.612,0,0,0-4.408-5.968ZM226.5,545a5,5,0,0,1,0-10c.091,0,.176.022.267.027a4.564,4.564,0,0,0,.07,2.441l2.112,6.865A4.936,4.936,0,0,1,226.5,545Z" transform="translate(-198.5 -320.5)" fill="#f0f0f0"/>
    <path id="Path_3" data-name="Path 3" d="M609.414,507.5a8,8,0,1,0-8,8c.1,0,.2-.011.295-.015a71.181,71.181,0,0,1,3.139,19.835,63.036,63.036,0,0,1-.573,10.031c-.348,2.358-1,5.063-3.339,6.164-1.746.821-.225,3.409,1.514,2.59,2.64-1.242,3.924-4.026,4.5-6.747a53.321,53.321,0,0,0,.9-10.643,74.074,74.074,0,0,0-3.215-21.9,8,8,0,0,0,4.775-7.318Z" transform="translate(-198.5 -320.5)" fill="#e6e6e6"/>
    <path id="Path_482" data-name="Path 482" d="M606.97,555.707s-10.727-26.4,21.453-46.207Z" transform="translate(-198.5 -320.5)" fill="#e6e6e6"/>
    <path id="Path_483" data-name="Path 483" d="M606.4,555.227s-3.272-18.82-28.6-18.658Z" transform="translate(-198.5 -320.5)" fill="#e6e6e6"/>
    <path id="Path_4" data-name="Path 4" d="M624.34,578.34H580.36a4.5,4.5,0,0,1-4.045-2.531l-9.576-19.683a4.5,4.5,0,0,1,4.045-6.466h63.131a4.5,4.5,0,0,1,4.045,6.466l-9.575,19.683a4.5,4.5,0,0,1-4.045,2.531Z" transform="translate(-198.5 -320.5)" fill="#f0f0f0"/>
    <path id="Path_5" data-name="Path 5" d="M1000.5,579.5h-801a1,1,0,0,1,0-2h801a1,1,0,0,1,0,2Z" transform="translate(-198.5 -320.5)" fill="#3f3d56"/>
    <path id="Path_6" data-name="Path 6" d="M167.075,200.927,147.64,127.442l-2.25-8.483L147.5,117l36.222-17.945,51.76,1.289,30.387,15.6.164,11.5,1.5,103.591L273.6,256.46H162.419l8.632-40.5Z" fill="#fff"/>
    <path id="Path_7" data-name="Path 7" d="M493.429,576.96H464.455l-8-57.76,2.094-71.258.289-9.694,5.531-1.8a35.113,35.113,0,0,1,10.093,11.5c3.555,6.187,6.507,15.053,5.773,26.974,0,0,.656,14.077.031,23.451C479.836,504.772,487.312,545.26,493.429,576.96Z" transform="translate(-198.5 -320.5)" fill="#fff"/>
    <path id="Path_8" data-name="Path 8" d="M365.676,520.693l-.1.734-7.687,55.533H324.571c2.672-31.466,5.812-70.8,5.39-77.109-.625-9.366.031-23.451.031-23.451-.8-12.913,2.742-22.224,6.671-28.458a37.843,37.843,0,0,1,7.226-8.483,20.153,20.153,0,0,1,1.968-1.523l5.531,1.8,1.445,8.21Z" transform="translate(-198.5 -320.5)" fill="#fff"/>
    <path id="Path_9" data-name="Path 9" d="M369.517,371.266a35.88,35.88,0,1,0,35.879-35.88h0a35.79,35.79,0,0,0-35.88,35.7Q369.517,371.177,369.517,371.266Z" transform="translate(-198.5 -320.5)" fill="#ffb7b7"/>
    <path id="Path_10" data-name="Path 10" d="M520,571.238h0a7.722,7.722,0,0,1-7.722,7.722H305.722A7.722,7.722,0,0,1,298,571.238h0a7.722,7.722,0,0,1,7.722-7.722h2.293a5.3,5.3,0,0,1-.2-1.414V456.649a6.706,6.706,0,0,1,6.706-6.706H503.482a6.706,6.706,0,0,1,6.706,6.706V562.1a4.992,4.992,0,0,1-.2,1.414h2.293A7.722,7.722,0,0,1,520,571.238Z" transform="translate(-198.5 -320.5)" fill="#3f3d56"/>
    <path id="Path_11" data-name="Path 11" d="M413,510.171a11.936,11.936,0,1,1,11.936-11.936A11.936,11.936,0,0,1,413,510.171Zm0-21.873a9.936,9.936,0,1,0,9.936,9.936A9.936,9.936,0,0,0,413,488.3Z" transform="translate(-198.5 -320.5)" fill="#fff"/>
    <circle id="Ellipse_1" data-name="Ellipse 1" cx="10.936" cy="10.936" r="10.936" transform="translate(199.564 162.799)" fill="#fff"/>
    <path id="Path_12" data-name="Path 12" d="M744.5,402.181V381a48,48,0,0,1,96,0v21.181A10.831,10.831,0,0,1,829.681,413H764.8l-5.3-11.263V413h-4.181A10.831,10.831,0,0,1,744.5,402.181Z" transform="translate(-198.5 -320.5)" fill="#2f2e41"/>
    <path id="Path_13" data-name="Path 13" d="M827.507,469.976l2.068,22.4.939,10.179,1.5,16.207.189,2.09,1.219,13.163.03.144a11.989,11.989,0,0,0,11.587,8.414l55.681-.962,15.715-.273c.3.454.6.863.894,1.227a15.487,15.487,0,0,0,11.277,5.627,15.331,15.331,0,0,0,11.754-4.688c.3-.31.6-.636.871-.977a15.479,15.479,0,0,0,1-18.146,15.3,15.3,0,0,0-10.618-6.877,15.466,15.466,0,0,0-12.148,3.325,13.7,13.7,0,0,0-1.492,1.431l-17.253-2.514-43.45-6.324-1.855-25.068c-.008-.114-.015-.227-.023-.348l-1.5-20.229a13.245,13.245,0,0,0-13.4-12.262,12.844,12.844,0,0,0-3.287.462,13.064,13.064,0,0,0-3.408,1.469,13.215,13.215,0,0,0-6.294,12.527Z" transform="translate(-198.5 -320.5)" fill="#9e616a"/>
    <circle id="Ellipse_2" data-name="Ellipse 2" cx="31.472" cy="31.472" r="31.472" transform="translate(564.47 30.718)" fill="#9e616a"/>
    <path id="Path_14" data-name="Path 14" d="M836.4,435.143l5.722-1.907S853.57,438,853.57,446.587s1.907,42.916,1.907,42.916l-25.75,2.861Z" transform="translate(-198.5 -320.5)" fill="#fff"/>
    <path id="Path_15" data-name="Path 15" d="M714.668,577.96h22.691l7.763-65.049,2.81-23.493.386-3.241,2.075-17.389a12,12,0,0,0-18.268-10.83,11.744,11.744,0,0,0-1.341.962,11.937,11.937,0,0,0-4.347,8.763L724.393,486.8Z" transform="translate(-198.5 -320.5)" fill="#9e616a"/>
    <path id="Path_16" data-name="Path 16" d="M748.7,489.5l-25.75-2.861s1.907-34.333,1.907-42.916S736.3,430.374,736.3,430.374l5.722,1.907Z" transform="translate(-198.5 -320.5)" fill="#fff"/>
    <path id="Path_17" data-name="Path 17" d="M740.35,577.96H847.993a210.606,210.606,0,0,0-13.9-37.86c-.947-1.931-1.507-2.961-1.507-2.961s-45.774-.9-74.387,10.542a14.026,14.026,0,0,0-4.8,3.423C748.446,556.224,744.115,565.835,740.35,577.96Z" transform="translate(-198.5 -320.5)" fill="#2f2e41"/>
    <path id="Path_18" data-name="Path 18" d="M762.97,424.652s-.908-.488,53.4,1.491L839.1,432.4l3.021.832s-2.861,57.221-10.491,67.712-5.722,16.213-3.815,17.166,6.676-.954,3.815,3.815-6.676,1.907-2.861,4.768,5.722,13.352,5.722,13.352l-83.925,11.444s-2.861-37.194-10.491-56.268-9.537-26.7-9.537-26.7l5.722-38.147Z" transform="translate(-198.5 -320.5)" fill="#fff"/>
    <path id="Path_19" data-name="Path 19" d="M760.5,365a31,31,0,1,1,62,0v14h-62Z" transform="translate(-198.5 -320.5)" fill="#2f2e41"/>
    <path id="Path_20" data-name="Path 20" d="M897,570.091v2.764a6.105,6.105,0,0,1-6.1,6.1H687.872a6.105,6.105,0,0,1-6.1-6.1v-2.766a6.105,6.105,0,0,1,6.1-6.1h3.606a5.136,5.136,0,0,1-.2-1.371V458.995a5.123,5.123,0,0,1,5.12-5.12H882.369a5.123,5.123,0,0,1,5.12,5.12V562.616a4.84,4.84,0,0,1-.2,1.371h3.6A6.106,6.106,0,0,1,897,570.091Z" transform="translate(-198.5 -320.5)" fill="#3f3d56"/>
    <path id="Path_21" data-name="Path 21" d="M793.384,512.42a11.6,11.6,0,1,1,11.6-11.6,11.6,11.6,0,0,1-11.6,11.6Zm0-21.206a9.6,9.6,0,1,0,9.6,9.6,9.6,9.6,0,0,0-9.6-9.6Z" transform="translate(-198.5 -320.5)" fill="#fff"/>
    <circle id="Ellipse_3" data-name="Ellipse 3" cx="10.603" cy="10.603" r="10.603" transform="translate(580.281 165.714)" fill="#fff"/>
    <path id="Path_22" data-name="Path 22" d="M446.039,341.462a24.292,24.292,0,0,1-6.878-8.359,11.3,11.3,0,0,0-2.376-3.321L430,335l4.146-7.221c-10.619-6.419-31.354-3.01-31.354-3.01-21.57-11.486-29.491,2.852-32.252,11.945a20.04,20.04,0,0,1-5.6,8.563C359.621,350.35,368,360.219,368,360.219v.7l2,13.584s2-9,7.278-15.324c3.328-3.987,8.743-6.358,11.259-6.309,32.463.633,38.609,1.918,38.609,1.918s5.5,2.953,7.923,4.193C442.913,362.987,441,377.5,441,377.5l5.861-25.759C448.214,345.5,447.463,342.632,446.039,341.462Z" transform="translate(-198.5 -320.5)" fill="#2f2e41"/>
  </g>
</svg>
