<svg xmlns="http://www.w3.org/2000/svg" width="891.213" height="795.63" viewBox="0 0 891.213 795.63">
  <g id="banner1.1" transform="translate(-51.768 0.001)">
    <path id="Path_1" data-name="Path 1" d="M512.5,52.185a382.306,382.306,0,0,1,238.77,83.25q4.77,3.78,9.42,7.73a386.737,386.737,0,0,1,42.23,41.8h.01S300.419,52.185,512.5,52.185Z" transform="translate(-128.499 -52.185)" fill="#f2f2f2"/>
    <path id="Path_2" data-name="Path 2" d="M241.856,502.516c-36.581-21.772-64.19-62.461-60.606-104.878a196.133,196.133,0,0,0,123.333,54.055c17.822,1.053,37.754.369,50.874,12.478,8.163,7.534,11.963,18.878,12.586,29.969s-1.6,22.124-3.809,33.011l.761,2.667C322.426,529.978,278.436,524.288,241.856,502.516Z" transform="translate(-128.499 -52.185)" fill="#e6e6e6"/>
    <path id="Path_3" data-name="Path 3" d="M182.142,397.593a167.641,167.641,0,0,0,69.678,76.049c6.587,3.687,13.59,6.854,21.032,8.323a41.406,41.406,0,0,0,21.723-1.721c6.534-2.2,12.963-5.214,19.919-5.791,7.332-.608,14.12,2.221,19.453,7.175,6.525,6.062,10.483,14.107,14.08,22.109,3.994,8.885,8,18.176,15.659,24.565.928.774-.328,2.168-1.254,1.4-13.322-11.116-15.5-29.732-26.146-42.824-4.969-6.109-11.809-10.757-19.935-10.634-7.106.107-13.738,3.206-20.334,5.495-6.927,2.4-13.866,3.532-21.178,2.474-7.48-1.081-14.622-3.981-21.275-7.484A162.641,162.641,0,0,1,213.065,446a170.614,170.614,0,0,1-32.71-47.836c-.5-1.1,1.29-1.66,1.787-.572Z" transform="translate(-128.499 -52.185)" fill="#fff"/>
    <path id="Path_4" data-name="Path 4" d="M241.624,468.62a25.152,25.152,0,0,1-31.817,6.956c-1.064-.571-.227-2.25.838-1.679a23.29,23.29,0,0,0,29.583-6.531c.727-.964,2.119.3,1.4,1.254Z" transform="translate(-128.499 -52.185)" fill="#fff"/>
    <path id="Path_5" data-name="Path 5" d="M291.41,481.8a48.478,48.478,0,0,0-16.879-31.036c-.925-.777.33-2.172,1.254-1.4a50.424,50.424,0,0,1,17.5,32.332c.148,1.2-1.727,1.294-1.874.1Z" transform="translate(-128.499 -52.185)" fill="#fff"/>
    <path id="Path_6" data-name="Path 6" d="M201.841,431.157a14.237,14.237,0,0,0,4.79-12.632c-.163-1.2,1.712-1.29,1.874-.1a15.954,15.954,0,0,1-5.268,13.986.97.97,0,0,1-1.325.071.943.943,0,0,1-.071-1.325Z" transform="translate(-128.499 -52.185)" fill="#fff"/>
    <path id="Path_7" data-name="Path 7" d="M299.659,315.46c.123.745.246,1.491.383,2.243a187.492,187.492,0,0,0,7.517,29.471c.243.747.5,1.5.765,2.237a197.659,197.659,0,0,0,36.584,62.908A191.963,191.963,0,0,0,365.6,432.871c10.233,8.722,22.022,17.365,28.582,28.626a32.934,32.934,0,0,1,1.871,3.621l-27.865,63.565c-.136.113-.258.232-.394.346l-1,2.589c-.4-.3-.818-.618-1.223-.917-.236-.172-.465-.359-.7-.532-.155-.12-.31-.24-.457-.339-.052-.04-.1-.08-.141-.113-.147-.1-.273-.206-.4-.3q-3.474-2.664-6.923-5.386c-.015-.006-.015-.006-.023-.027-17.484-13.872-33.964-29.326-47.574-46.789-.409-.526-.833-1.057-1.23-1.611a183.168,183.168,0,0,1-16.25-25.087,161.916,161.916,0,0,1-6.968-14.829,134.654,134.654,0,0,1-9.588-40.995c-2.043-28.075,4.916-56.49,22.949-77.632C298.727,316.522,299.182,315.995,299.659,315.46Z" transform="translate(-128.499 -52.185)" fill="#e6e6e6"/>
    <path id="Path_8" data-name="Path 8" d="M300.4,315.957a167.641,167.641,0,0,0,9.848,102.672c3.04,6.91,6.724,13.655,11.782,19.308a41.4,41.4,0,0,0,18.381,11.7c6.544,2.175,13.489,3.641,19.391,7.369,6.22,3.929,9.937,10.274,11.212,17.441,1.56,8.769-.123,17.575-2.069,26.13-2.16,9.5-4.555,19.33-2.287,29.041.275,1.177-1.567,1.534-1.841.359-3.945-16.9,5.527-33.07,4.907-49.934-.29-7.869-2.953-15.7-9.515-20.493-5.738-4.193-12.9-5.711-19.544-7.856-6.977-2.252-13.2-5.528-18.4-10.775-5.322-5.367-9.278-11.982-12.481-18.784a162.643,162.643,0,0,1-13.838-48.913,170.614,170.614,0,0,1,2.683-57.888c.26-1.176,2.029-.549,1.771.619Z" transform="translate(-128.499 -52.185)" fill="#fff"/>
    <path id="Path_9" data-name="Path 9" d="M305.132,408.481a25.151,25.151,0,0,1-29.592-13.6c-.506-1.1,1.174-1.934,1.68-.836a23.29,23.29,0,0,0,27.553,12.6c1.161-.331,1.513,1.512.359,1.841Z" transform="translate(-128.499 -52.185)" fill="#fff"/>
    <path id="Path_10" data-name="Path 10" d="M336.95,448.976a48.477,48.477,0,0,0,5.209-34.943c-.271-1.178,1.571-1.535,1.841-.359a50.424,50.424,0,0,1-5.494,36.35c-.605,1.047-2.158-.006-1.556-1.048Z" transform="translate(-128.499 -52.185)" fill="#fff"/>
    <path id="Path_11" data-name="Path 11" d="M295.923,354.616a14.237,14.237,0,0,0,11.429-7.2c.591-1.055,2.144,0,1.556,1.048a15.954,15.954,0,0,1-12.626,8,.97.97,0,0,1-1.1-.741.943.943,0,0,1,.741-1.1Z" transform="translate(-128.499 -52.185)" fill="#fff"/>
    <path id="Path_12" data-name="Path 12" d="M394.5,141.185l47,550.192-94,7.068V148.185C358.7,140.774,374.779,139.614,394.5,141.185Z" transform="translate(-128.499 -52.185)" fill="#ccc"/>
    <path id="Path_13" data-name="Path 13" d="M626.5,141.185l-47,550.192,94,7.068V148.185C662.3,140.774,646.22,139.614,626.5,141.185Z" transform="translate(-128.499 -52.185)" fill="#ccc"/>
    <path id="Path_14" data-name="Path 14" d="M659.425,721.185H360.574A18.1,18.1,0,0,1,342.5,703.11V156.26a18.1,18.1,0,0,1,18.075-18.075H659.425A18.1,18.1,0,0,1,677.5,156.26V703.11A18.1,18.1,0,0,1,659.425,721.185Zm-298.851-577A12.088,12.088,0,0,0,348.5,156.26V703.11a12.089,12.089,0,0,0,12.075,12.075H659.425A12.089,12.089,0,0,0,671.5,703.11V156.26a12.088,12.088,0,0,0-12.075-12.075Z" transform="translate(-128.499 -52.185)" fill="#ccc"/>
    <rect id="Rectangle_1" data-name="Rectangle 1" width="329" height="6" transform="translate(217 177)" fill="#ccc"/>
    <rect id="Rectangle_2" data-name="Rectangle 2" width="329" height="6" transform="translate(217 277)" fill="#ccc"/>
    <rect id="Rectangle_3" data-name="Rectangle 3" width="6" height="273" transform="translate(317.764 89)" fill="#ccc"/>
    <rect id="Rectangle_4" data-name="Rectangle 4" width="6" height="273" transform="translate(439.236 89)" fill="#ccc"/>
    <path id="Path_15" data-name="Path 15" d="M712,737.685H318a27,27,0,0,1,0-54H712a27,27,0,0,1,0,54Z" transform="translate(-128.499 -52.185)" fill="#ccc"/>
    <rect id="Rectangle_5" data-name="Rectangle 5" width="327" height="20" transform="translate(219 348)" fill="#ccc"/>
    <path id="Path_16" data-name="Path 16" d="M453.194,463.836l-.415-.2c-22.292-10.768-51.483-10.759-94.653.035l-.461.115-.138-.455c-4.567-14.974-9.74-31.934-.021-40.278.136-24.485,21.614-44.368,48-44.368s47.851,19.872,48,44.351c14.457,11.054,7.567,27.388-.068,40.4Z" transform="translate(-128.499 -52.185)" fill="#2f2e41"/>
    <path id="Path_17" data-name="Path 17" d="M590.206,411.4a13.844,13.844,0,0,1-18.647,10.147l-78.777,79.165-7.029-24.581,78.241-73.515a13.919,13.919,0,0,1,26.212,8.784Z" transform="translate(-128.499 -52.185)" fill="#ffb6b6"/>
    <path id="Path_18" data-name="Path 18" d="M395.507,487.618S388.36,503.815,406,513.8s79.273-3.812,89.274-5.738,47.356-57.828,47.356-57.828l-5.282-27.415-49.54,43Z" transform="translate(-128.499 -52.185)" fill="#fafafa"/>
    <path id="Path_19" data-name="Path 19" d="M382.5,577.185l1,19s-2.952,16.831-.524,20.463c2.409,3.614,68.15,4.07,68.15,4.07s4.344-23.417,8.085-43.913Z" transform="translate(-128.499 -52.185)" fill="#ffb6b6"/>
    <path id="Path_20" data-name="Path 20" d="M443.014,776.221l13.744-2.776-3.934-55.514-20.284,4.1Z" fill="#ffb6b6"/>
    <path id="Path_21" data-name="Path 21" d="M462.7,703.978l12.777-5.745L458.9,645.117l-18.858,8.48Z" fill="#ffb6b6"/>
    <path id="Path_22" data-name="Path 22" d="M602.33,726.235l-24.058,13.622L518.94,644.515c-41.651,28.061-82.381,41.5-123.441,48.67-13.882,2.472-28.035,1.219-30.7-12.91q-.187-.991-.3-1.993c-1.639-15.433,17.558-35.215,20-54.1l52.54-3.154,6.479,8.307,60.761-37.356c12.219-7.512,28.291-3.449,35.9,9.076q.6.992,1.118,2.033Z" transform="translate(-128.499 -52.185)" fill="#2f2e41"/>
    <path id="Path_23" data-name="Path 23" d="M587.6,790.372l-27.528,2.558L510.164,690.849c-49.5,8.512-96.19,11.239-136.579.942-13.675-3.438-22.034-17.558-18.67-31.538q.236-.98.545-1.94c4.834-14.748,17.487-25.183,27.456-41.4l72.817,1.106L447.6,646.078l70.736-9.154c14.225-1.841,27.217,8.456,29.018,23q.143,1.152.186,2.313Z" transform="translate(-128.499 -52.185)" fill="#2f2e41"/>
    <circle id="Ellipse_1" data-name="Ellipse 1" cx="29.568" cy="29.568" r="29.568" transform="translate(252.864 338.002)" fill="#ffb6b6"/>
    <path id="Path_24" data-name="Path 24" d="M393.6,460l27.111,3.19a5.532,5.532,0,0,1,4.758,4.313l4.312,19.729,26.877,31.651s9.651,18.1,6.032,38.6-5.21,35.748-5.21,35.748-72.1,27.031-74.51,23.412-3.2-20.058-3.2-20.058l-9.651-107.37s10.858-18.1,16.89-18.1C390.9,470.989,390.4,462.228,393.6,460Z" transform="translate(-128.499 -52.185)" fill="#fafafa"/>
    <ellipse id="Ellipse_2" data-name="Ellipse 2" cx="6.884" cy="8.261" rx="6.884" ry="8.261" transform="translate(322.827 531.126)" fill="#6c63ff"/>
    <path id="Path_25" data-name="Path 25" d="M564.693,814.113l20.954-10.5,3.949,9.213,26.5,5.356a6.261,6.261,0,0,1,1.227,11.892l-25.6,10.974-8.319-7.222,2.183,9.852-9.653,4.138Z" transform="translate(-128.499 -52.185)" fill="#2f2e41"/>
    <path id="Path_26" data-name="Path 26" d="M585.2,751.744l20.766-10.868,4.111,9.142,26.587,4.889a6.261,6.261,0,0,1,1.436,11.869L612.7,778.2l-8.445-7.074,2.356,9.812-9.578,4.307Z" transform="translate(-128.499 -52.185)" fill="#2f2e41"/>
    <path id="Path_27" data-name="Path 27" d="M394.039,410.48a37.838,37.838,0,0,1-21.826-6.886l-.213-.149v-.26a28.532,28.532,0,0,1,28.5-28.5h12a28.532,28.532,0,0,1,28.5,28.5,6.636,6.636,0,0,1-6.49,6.6l-39.8.686C394.488,410.479,394.263,410.48,394.039,410.48Z" transform="translate(-128.499 -52.185)" fill="#2f2e41"/>
    <ellipse id="Ellipse_3" data-name="Ellipse 3" cx="8" cy="11" rx="8" ry="11" transform="translate(296.573 330.475) rotate(-30)" fill="#2f2e41"/>
    <ellipse id="Ellipse_4" data-name="Ellipse 4" cx="11" cy="8" rx="11" ry="8" transform="translate(235.568 336.121) rotate(-45)" fill="#2f2e41"/>
    <path id="Path_28" data-name="Path 28" d="M644.838,662.185H615.325a4.57,4.57,0,0,0-3.5,1.617,7,7,0,1,0,1.806,13.173l2.448,7.954a4.611,4.611,0,0,0,4.408,3.255h19.188a4.611,4.611,0,0,0,4.407-3.255l5.163-16.777a4.612,4.612,0,0,0-4.407-5.968Zm-34.256,13.5a5,5,0,1,1,0-10c.091,0,.176.022.267.027a4.563,4.563,0,0,0,.07,2.441l2.112,6.865a4.936,4.936,0,0,1-2.449.668Z" transform="translate(-128.499 -52.185)" fill="#3f3d56"/>
    <path id="Path_29" data-name="Path 29" d="M513.052,640.478a13.844,13.844,0,0,1-15.07-14.951l-98.439-52.752,21.531-13.786,92.873,53.858a13.919,13.919,0,0,1-.895,27.63Z" transform="translate(-128.499 -52.185)" fill="#ffb6b6"/>
    <path id="Path_30" data-name="Path 30" d="M384.182,475.832s-17.566-2.2-22.075,17.56,26.4,74.846,31.111,83.874S462.2,606.039,462.2,606.039l24.747-12.926L431.538,558Z" transform="translate(-128.499 -52.185)" fill="#fafafa"/>
    <path id="Path_31" data-name="Path 31" d="M379.5,342h6a11,11,0,0,1,11,11h-28a11,11,0,0,1,11-11Z" fill="#ccc"/>
    <circle id="Ellipse_5" data-name="Ellipse 5" cx="59.442" cy="59.442" r="59.442" transform="translate(129.8 17.882)" fill="#ff6584"/>
    <path id="Path_32" data-name="Path 32" d="M499.738,126.411c-15.731-16.5-34-31.557-55.63-39.513a89.414,89.414,0,0,0-18.633-4.682c-.051-.007-.1,0-.15,0a2.749,2.749,0,0,0-.314-.062,71.725,71.725,0,0,0-26.622,1.607,73.555,73.555,0,0,0-12.4,4.318,108.4,108.4,0,0,0-11.631,6.592,75.652,75.652,0,0,1-25.7,9.589,86.468,86.468,0,0,1-13.8,1.355c-4.018.081-7.807.22-11.613,1.672a27.874,27.874,0,0,0-16.976,18.381,1.807,1.807,0,0,0,.8,1.974c1.03.737,2.034,1.574,3.115,2.231a9.719,9.719,0,0,0,3.043.83q2.58.544,5.167,1.057,9.529,1.888,19.138,3.343,19.442,2.943,39.094,4.146a435.3,435.3,0,0,0,78.685-2.365,436.8,436.8,0,0,0,43.655-7.551,1.764,1.764,0,0,0,.772-2.922Z" transform="translate(-128.499 -52.185)" fill="#e6e6e6"/>
    <path id="Path_33" data-name="Path 33" d="M320.562,166.155a89.415,89.415,0,0,0-18.633-4.682c-.051-.007-.1,0-.15,0a2.745,2.745,0,0,0-.314-.062,71.725,71.725,0,0,0-26.622,1.607,73.555,73.555,0,0,0-12.4,4.318,108.4,108.4,0,0,0-11.631,6.592,75.652,75.652,0,0,1-25.7,9.589,86.466,86.466,0,0,1-13.8,1.355c-4.018.081-7.807.22-11.613,1.672a27.874,27.874,0,0,0-16.975,18.381,1.807,1.807,0,0,0,.8,1.974c1.03.737,2.034,1.574,3.115,2.231a9.72,9.72,0,0,0,3.043.83q2.58.544,5.167,1.057,9.529,1.888,19.137,3.343,19.442,2.943,39.094,4.146a435.305,435.305,0,0,0,78.685-2.365,436.815,436.815,0,0,0,43.655-7.551,1.764,1.764,0,0,0,.771-2.922C360.461,189.165,342.191,174.11,320.562,166.155Z" transform="translate(-128.499 -52.185)" fill="#e6e6e6"/>
    <path id="Path_34" data-name="Path 34" d="M620.723,557.1l-45.712-60.051-36.068,20.394L615.374,608.2Z" fill="#3f3d56"/>
    <path id="Path_35" data-name="Path 35" d="M854.519,511.665a329.33,329.33,0,0,0,11.62,74.41q-2.16,5.085-4.46,10.1a378.585,378.585,0,0,1-19.46,36.94,385.537,385.537,0,0,1-74.35,89.85q-4.74,4.215-9.61,8.29c-18.51-25.52-28.5-53.68-32.45-82.66-.5-3.68-.91-7.4-1.22-11.1v-.02a236.767,236.767,0,0,1-.73-27.04c.01-.72.03-1.45.06-2.18.35-9.64,1.22-19.3,2.53-28.87v-.01c.15-1.1.3-2.2.47-3.3.48-3.3,1.02-6.6,1.61-9.88a400.2,400.2,0,0,1,14.34-55.79v-.01c.17-.53.34-1.05.53-1.57.66-1.98,1.33-3.94,2.02-5.9a3.449,3.449,0,0,1,.16-.45q1.335-3.84,2.73-7.62.375-1.05.78-2.1c1.05-2.81,2.12-5.6,3.21-8.35.34-.88.69-1.76,1.04-2.63.27-.67.53-1.34.81-2v-.01q2.385-5.895,4.83-11.56c4.57-10.62,9.27-20.61,13.85-29.82l.01-.01c19.01-38.13,36.29-62.89,36.29-62.89l64.89,21c-7.74,13.73-13.73,33.98-17.01,57.87a323.063,323.063,0,0,0-2.49,57.3Z" transform="translate(-128.499 -52.185)" fill="#3f3d56"/>
    <path id="Path_36" data-name="Path 36" d="M746.669,505.555c-.38-.89-.81-1.76-1.25-2.63a49.259,49.259,0,0,0-8.71-12c-.52-.53-1.06-1.06-1.62-1.56a48.718,48.718,0,0,0-45.48-11.26l-.04.02-.3.08.07.34a28.279,28.279,0,0,0,1.3,4.65c.15.41.32.8.49,1.19.07.18.16.34.24.52,0,0-.01.01.01.01,0,.01.01.02.01.03.19.37.37.75.57,1.11-.41-.39-.8-.79-1.18-1.2-.37-.38-.71-.78-1.05-1.18a33.146,33.146,0,0,1-3.15-4.34l-.16-.27-.28.11a49.109,49.109,0,0,0-10.72,5.25l-.36.24a21.8,21.8,0,0,1-17.51,2.86,34.719,34.719,0,0,0-27.59,4.51,34.3,34.3,0,0,0-7.18,6.26c-.18.21-.36.43-.54.64-.38.46-.74.93-1.09,1.41a34.263,34.263,0,0,0-6.67,17.23l-.02.23.19.13a29.715,29.715,0,0,0,11.24,4.68,33.628,33.628,0,0,1-7.64.19h-.01a30.947,30.947,0,0,1-3.44-.48l-.21-.04h-.01l-.26-.05.04.48a34.4,34.4,0,0,0,5.57,17.15l.1.14a1.392,1.392,0,0,1,.1.16,36,36,0,0,1,3.52,6.91,32.918,32.918,0,0,1,1.48,18.91,34.5,34.5,0,0,0,31.07,42.13c.83.07,1.67.11,2.51.11a34.478,34.478,0,0,0,13.97-2.91l.16-.06.04-.18a33.841,33.841,0,0,1,3.54-7.78,23.576,23.576,0,0,0-.74,5.87v.66l.57-.33c.49-.29.99-.6,1.44-.89a35.228,35.228,0,0,0,7.27-6.32c.83-.96,1.67-1.89,2.55-2.82l.01-.01c1.71-1.82,3.52-3.6,5.4-5.3a100.971,100.971,0,0,1,12.8-9.77,110.306,110.306,0,0,1,14.13-7.68h.01c.55-.26,1.11-.51,1.66-.75a48.741,48.741,0,0,0,7.01-3.76c.08-.05.15-.09.22-.14a48.792,48.792,0,0,0,17.92-60.5Z" transform="translate(-128.499 -52.185)" fill="#fff"/>
    <path id="Path_37" data-name="Path 37" d="M626.777,580.184a34.478,34.478,0,0,0-.619,3.684,34.929,34.929,0,0,1-.782-18.177c.208-.921.364-1.853.486-2.791A32.781,32.781,0,0,1,626.777,580.184Z" transform="translate(-128.499 -52.185)" opacity="0.15"/>
    <path id="Path_38" data-name="Path 38" d="M627.533,536.806a33.635,33.635,0,0,1-8.932.043,34.6,34.6,0,0,1-2.007-4.545,29.306,29.306,0,0,0,10.938,4.5Z" transform="translate(-128.499 -52.185)" opacity="0.15"/>
    <path id="Path_39" data-name="Path 39" d="M618.364,522.484a34.765,34.765,0,0,0-2.161,8.705,34.364,34.364,0,0,1-1.6-8.768l-.025-.48.472.092a33.4,33.4,0,0,0,3.316.452Z" transform="translate(-128.499 -52.185)" opacity="0.15"/>
    <path id="Path_40" data-name="Path 40" d="M630.217,491.738a34.632,34.632,0,0,1,27.574-4.516,21.766,21.766,0,0,0,17.52-2.855l.361-.238a48.968,48.968,0,0,1,10.714-5.262l.288-.1.157.26a33.119,33.119,0,0,0,5.376,6.725,25.4,25.4,0,0,1-2.618-7.51l-.068-.346.341-.09a48.721,48.721,0,0,1,61.116,49.7A48.729,48.729,0,0,0,691.264,492.3l-.341.09.068.346a25.4,25.4,0,0,0,2.618,7.51,33.124,33.124,0,0,1-5.376-6.725l-.157-.26-.288.1a48.963,48.963,0,0,0-10.714,5.262l-.361.238a21.766,21.766,0,0,1-17.52,2.855,34.556,34.556,0,0,0-39.8,18.426,41.873,41.873,0,0,1-4.493-2.51l-.2-.124.023-.23a34.417,34.417,0,0,1,15.49-25.539Z" transform="translate(-128.499 -52.185)" opacity="0.15"/>
    <path id="Path_41" data-name="Path 41" d="M1001.98,236.225l-.95-.63-.69.9a81.832,81.832,0,0,0-12.59,22.29,106.751,106.751,0,0,1,4.82-27.29l.3-.93-.86-.49a157.69,157.69,0,0,0-35.5-14.72l-1.35-.36a70.062,70.062,0,0,1-44.15-36.28,111.368,111.368,0,0,0-111.43-60.49h-.01c-.24.02-.49.05-.73.08-.41.04-.81.09-1.21.14-.82.11-1.62.22-2.42.34-.68.1-1.37.21-2.05.33-.36.05-.71.11-1.06.18s-.71.12-1.06.19h-.01a110.253,110.253,0,0,0-19.66,5.65h-.01v.01l-1.61.63q-2.49,1.02-4.94,2.16c-.37.17-.73.35-1.1.52-.1.05-.21.1-.31.16-1.05.5-2.09,1.02-3.12,1.57-.15.07-.3.15-.45.23l-.96.51q-3.165,1.71-6.22,3.63c-.17.1-.33.2-.5.31s-.37.24-.55.36c-.11.06-.22.14-.33.21-.31.19-.61.39-.91.6-.6.39-1.2.79-1.79,1.2-.61.41-1.21.84-1.81,1.27l-.6.43.11.74c.1.61.19,1.22.3,1.82s.2,1.19.31,1.78c.17.99.36,1.97.55,2.92.13.63.25,1.25.39,1.86q.2.945.42,1.89c.29,1.3.6,2.56.93,3.8.16.62.33,1.24.51,1.85.1.37.2.74.31,1.1l.24.75c.02.08.04.17.07.26a2.378,2.378,0,0,0,.08.25q.165.555.33,1.08c.06.19.12.38.19.56.14.43.29.87.44,1.29.16.48.33.96.5,1.43.04.12.08.23.12.35.03.09.06.18.1.27s.08.21.12.31c.17.45.34.91.52,1.36.06.16.12.33.19.49a71.634,71.634,0,0,0,5.95,11.7q-3.885-3.33-7.48-7.06a107.655,107.655,0,0,1-10.2-12.31c-.25-.34-.5-.69-.73-1.04-.47-.67-.93-1.34-1.38-2.02-.48-.7-.94-1.43-1.39-2.15-.3-.48-.6-.97-.89-1.45-.29-.46-.56-.91-.82-1.37l-.78-1.34h-.01v.01l-1.1,1.08c-.44.43-.88.86-1.31,1.29a111.134,111.134,0,0,0-28.27,48.65l-.15.55-.15.57c-.29,1.02-.58,2.01-.89,3.02v.01c-.3,1-.62,2-.96,2.98-.31.93-.63,1.85-.97,2.77q-.165.465-.36.93c-.21.6-.44,1.19-.67,1.79-.11.27-.22.55-.33.82-.27.66-.54,1.32-.81,1.97-.04.1-.09.21-.14.31-.08.2-.17.4-.25.59-.21.48-.43.97-.64,1.45-.15.31-.29.63-.43.94-.06.14-.13.28-.19.42-.37.8-.75,1.59-1.15,2.37-.45.92-.91,1.84-1.4,2.74-.43.84-.88,1.66-1.35,2.48-.81,1.45-1.66,2.89-2.54,4.29-.34.54-.68,1.08-1.03,1.62-.08.13-.16.26-.24.38-.29.47-.59.92-.9,1.38-.21.31-.42.62-.63.92-.35.54-.72,1.06-1.1,1.57-.1.16-.21.31-.32.46-.56.78-1.12,1.54-1.69,2.3-.02.01-.02.02-.03.03s-.02.01-.03.02c-.25.33-.5.66-.76.98-.34.47-.71.93-1.08,1.38-.6.76-1.23,1.53-1.87,2.28-.02.02-.03.04-.05.05a106.534,106.534,0,0,1-10.74,10.92c-.07.06-.12.12-.19.17-.54.47-1.08.94-1.64,1.4l-.69.57c-.38.32-.77.64-1.15.93a.793.793,0,0,1-.15.12c-.34.28-.67.54-1.01.8-.41.33-.82.64-1.24.95q-2.97,2.25-6.1,4.25c-.31.21-.64.42-.96.62-.19.12-.38.24-.56.34-.76.47-1.52.93-2.28,1.37s-1.54.88-2.31,1.3c-1.65.9-3.28,1.84-4.87,2.82-.8.5-1.6,1-2.39,1.51q-4.71,3.06-9.07,6.55a110.738,110.738,0,0,0-8.35,7.41q-.495.48-.99.99c-.66.65-1.3,1.31-1.91,1.97-.98,1.01-1.92,2.05-2.85,3.1a112.394,112.394,0,0,0-12.96,18.02,105.93,105.93,0,0,0-5.08,9.89c-1.15,2.53-2.2,5.12-3.15,7.74q-.945,2.625-1.77,5.3c-.27.89-.53,1.79-.78,2.69-.85,3.05-1.56,6.13-2.14,9.22q-.705,3.72-1.14,7.45c-.15,1.25-.27,2.5-.38,3.74q-.386,4.572-.395,9.152a111.31,111.31,0,0,0,3.314,27.178q.735,2.94,1.63,5.85c.3.97.62,1.93.94,2.89q1.215,3.6,2.69,7.13.885,2.115,1.86,4.2a111.617,111.617,0,0,0,15.68,24.56q1.545,1.845,3.19,3.63c.01,0,0,.01,0,.01a110.885,110.885,0,0,0,8.63,8.44h.01q1.815,1.6,3.69,3.11c.01-.01.01,0,.01,0,1.26,1.02,2.53,2,3.83,2.95q.975.705,1.98,1.41,1.965,1.395,4.01,2.69h.01q2.04,1.32,4.14,2.52c2.81,1.61,5.69,3.12,8.65,4.49l.5.23.51-.23a109.452,109.452,0,0,1,14.64-5.37c1.1-.32,2.21-.61,3.31-.89q4.17-1.035,8.4-1.74a69.1,69.1,0,0,0-7.94,4.67c-1.97,1.33-3.91,2.78-5.86,4.38-.65.53-1.3,1.08-1.95,1.64l-1.62,1.4,2.03.67c.74.24,1.48.48,2.22.7,1.01.32,2.01.61,2.99.88q3.21.9,6.46,1.59l1.58.33c1.03.2,2.07.4,3.11.58a.687.687,0,0,0,.13.02c1.08.18,2.17.35,3.25.5q3.015.435,6.03.69c.22.03.44.04.67.05.49.04.97.08,1.46.11,1.08.07,2.17.12,3.26.16.08,0,.15.01.23.01.55.02,1.1.04,1.65.05,0,0,0,.01.01,0,.55.01,1.1.02,1.65.02h3.04c.57,0,1.14.01,1.72.01.8,0,1.61.01,2.41.02.21,0,.43.01.65.01,1.28.02,2.56.05,3.84.08.08,0,.16.01.24.01,1.28.04,2.56.08,3.84.14.28.01.56.02.85.04q1.845.075,3.69.18c.35.02.71.05,1.07.07.93.05,1.87.11,2.8.18.55.03,1.09.07,1.64.12,2.22.17,4.43.36,6.65.58.74.06,1.48.14,2.22.22q2.97.315,5.96.69c.89.1,1.78.22,2.67.34.1.01.2.02.3.04,1.1.15,2.19.3,3.29.46.72.1,1.44.21,2.16.32.74.11,1.48.22,2.22.35.4.06.8.13,1.21.2.96.15,1.93.31,2.9.49a2.341,2.341,0,0,1,.26.04c2.06.36,4.13.74,6.19,1.15,1.21.23,2.41.47,3.61.72.94.19,1.88.39,2.82.59.16.03.32.07.48.11a.516.516,0,0,0,.11.02c1.42.31,2.85.63,4.27.97q7.4,1.71,14.77,3.8c1.13.31,2.26.64,3.39.97.48.14.95.28,1.42.42.98.29,1.95.58,2.93.89.86.26,1.73.53,2.59.81.54.17,1.08.34,1.62.52.84.26,1.68.53,2.51.82.71.22,1.41.45,2.11.7,1,.33,2.01.67,3.01,1.03.29.1.59.2.88.31,1.22.42,2.44.85,3.66,1.3,1.19.43,2.38.87,3.56,1.31.82.31,1.64.61,2.45.93.91.35,1.82.7,2.72,1.06,1.3.51,2.61,1.03,3.91,1.56,1.2.48,2.39.97,3.59,1.48.22.09.45.18.67.28,1.04.43,2.08.88,3.11,1.33.67.28,1.33.57,1.99.86q4.32,1.89,8.63,3.91h.01c1.8.85,3.63,1.66,5.47,2.43.43.18.86.36,1.3.53.73.31,1.47.6,2.21.9.48.19.96.38,1.45.56.71.28,1.43.55,2.15.81.76.28,1.51.56,2.28.82.27.1.54.19.82.29.89.3,1.78.6,2.68.89.09.03.18.06.28.09.94.3,1.88.6,2.83.88a1.989,1.989,0,0,0,.23.07c1.02.31,2.06.61,3.09.9,1.52.42,3.05.82,4.58,1.19.28.07.56.14.84.2.82.2,1.63.39,2.45.57.87.2,1.75.38,2.62.56s1.76.36,2.63.52c.47.09.94.18,1.4.26l1.23.21c.85.15,1.7.28,2.56.42a.2.2,0,0,1,.07.01c.97.15,1.93.29,2.9.41.93.13,1.86.24,2.79.35l.59.06c.77.09,1.54.18,2.31.25l.66.06c.76.07,1.52.14,2.28.19a3.557,3.557,0,0,0,.46.03c.68.06,1.36.11,2.04.14.48.04.95.06,1.43.09l.74.03c.66.04,1.32.06,1.99.08.81.03,1.62.05,2.42.07.97.02,1.95.03,2.92.03h.02c.95,0,1.91-.01,2.86-.03h.36l1.05-.03c.54-.01,1.08-.03,1.61-.05,1.02-.04,2.03-.09,3.04-.15.4-.02.81-.05,1.21-.07.18-.01.37-.03.55-.04.63-.04,1.25-.08,1.88-.13.65-.05,1.31-.11,1.96-.18.84-.08,1.68-.17,2.52-.26.66-.07,1.32-.15,1.97-.23a2.043,2.043,0,0,0,.26-.04c.63-.07,1.26-.15,1.88-.24.74-.1,1.47-.21,2.2-.32l.23-.03c1.26-.2,2.53-.4,3.8-.63,1.33-.24,2.66-.5,3.98-.77.49-.1.97-.21,1.46-.31.27-.06.55-.11.81-.17.41-.09.81-.18,1.21-.28.07-.01.15-.03.22-.04.56-.12,1.11-.26,1.67-.4,1.12-.27,2.22-.55,3.32-.85.49-.12.98-.25,1.45-.38.14-.04.28-.08.41-.12q3.045-.855,6.04-1.81c.88-.28,1.75-.57,2.62-.88q2.8-.96,5.56-2.02c.49-.18.98-.38,1.47-.57.72-.29,1.44-.58,2.15-.87.64-.27,1.28-.54,1.93-.82.32-.13.64-.27.96-.41.96-.42,1.92-.85,2.87-1.28.64-.3,1.27-.59,1.9-.89,1-.48,1.99-.97,2.98-1.46.25-.13.49-.26.73-.38.63-.32,1.26-.65,1.9-.97,1.01-.54,2.02-1.08,3.02-1.64.34-.18.67-.37,1.01-.56q1.65-.93,3.27-1.89,3.585-2.145,7.07-4.48c.58-.38,1.16-.78,1.73-1.17,1.08-.74,2.14-1.5,3.2-2.26.11-.08.21-.16.32-.23.53-.39,1.06-.78,1.59-1.18,1.1-.83,2.19-1.67,3.28-2.53.02-.01.05-.04.08-.06.49-.39.98-.78,1.46-1.17,1.49-1.21,2.96-2.44,4.4-3.71.71-.61,1.41-1.24,2.1-1.87.52-.47,1.04-.94,1.55-1.42,1.03-.97,2.04-1.93,3.04-2.91.5-.48.99-.98,1.49-1.48s.99-1,1.48-1.51c.17-.17.34-.35.51-.53.5-.53,1-1.07,1.5-1.6.43-.46.85-.94,1.28-1.42.72-.8,1.45-1.6,2.16-2.41a1.538,1.538,0,0,1,.12-.13c.04-.05.08-.09.11-.13h-.01a156.932,156.932,0,0,0-31.27-232.97Z" transform="translate(-128.499 -52.185)" fill="#fff"/>
    <g id="Group_1" data-name="Group 1" opacity="0.15">
      <path id="Path_42" data-name="Path 42" d="M799.572,118.217a78.6,78.6,0,0,0,8.907,20.32,108.184,108.184,0,0,1-17.443-19.049Q795.277,118.686,799.572,118.217Z" transform="translate(-128.499 -52.185)"/>
      <path id="Path_43" data-name="Path 43" d="M701.994,228.954a111.708,111.708,0,0,0-20.628,14.5A113.721,113.721,0,0,0,704.174,200.2c.053-.191.106-.383.158-.575l.149-.541a111.176,111.176,0,0,1,29.574-49.954l1.109-1.081.782,1.336a108.706,108.706,0,0,0,15.42,20.317C742.3,195.3,724.646,216.6,701.994,228.954Z" transform="translate(-128.499 -52.185)"/>
      <path id="Path_44" data-name="Path 44" d="M754.123,160.839l-.149.541c-.052.191-.1.384-.158.575-.292,1.052-.6,2.1-.923,3.137a115.874,115.874,0,0,1-6.622-25.416l-.116-.738.607-.434a112.16,112.16,0,0,1,24.6-13.373,111.427,111.427,0,0,0-17.24,35.709Z" transform="translate(-128.499 -52.185)"/>
      <path id="Path_45" data-name="Path 45" d="M652.353,267.2a100.592,100.592,0,0,0,18.278-12.831,111.147,111.147,0,0,0,37.395,173.177l.506.233.5-.228a106.631,106.631,0,0,1,26.358-8,76.173,76.173,0,0,0-15.751,10.693l-1.618,1.4,2.03.67c1.752.579,3.5,1.112,5.207,1.585a112.224,112.224,0,0,0,30.743,4.113c47.2-.3,94.769,10.61,141.382,32.434a158.829,158.829,0,0,0,24.788,9.161,156.275,156.275,0,0,0,111.1-10.423,157.132,157.132,0,0,1-160.744,48.673,158.832,158.832,0,0,1-24.788-9.161c-46.613-21.824-94.181-32.737-141.382-32.435a112.225,112.225,0,0,1-30.743-4.113c-1.7-.473-3.456-1.006-5.207-1.585l-2.03-.67L670,468.5A76.168,76.168,0,0,1,685.753,457.8a106.628,106.628,0,0,0-26.358,8l-.5.228-.506-.233a111.2,111.2,0,0,1-6.032-198.6Z" transform="translate(-128.499 -52.185)"/>
    </g>
  </g>
</svg>
