<svg id="payment" xmlns="http://www.w3.org/2000/svg" width="717.67" height="595.33" viewBox="0 0 717.67 595.33">
  <rect id="Rectangle_4" data-name="Rectangle 4" width="326" height="594" rx="58.728" transform="translate(156.855)" fill="#3f3d56"/>
  <path id="Path_24" data-name="Path 24" d="M718.52,211.068v476.54a53.292,53.292,0,0,1-53.23,53.23H456.75a53.292,53.292,0,0,1-53.23-53.23V211.068a53.292,53.292,0,0,1,53.23-53.23h27.27v9.42a16.081,16.081,0,0,0,16.079,16.08H621.94a16.081,16.081,0,0,0,16.08-16.079v-9.421h27.27a53.292,53.292,0,0,1,53.23,53.23Z" transform="translate(-241.165 -152.335)" fill="#fff"/>
  <path id="Path_25" data-name="Path 25" d="M396.52,272.835a4,4,0,0,1-4-4v-8a4,4,0,0,1,8,0v8A4,4,0,0,1,396.52,272.835Z" transform="translate(-241.165 -152.335)" fill="#3f3d56"/>
  <path id="Path_26" data-name="Path 26" d="M396.52,313.857a4,4,0,0,1-4-4V287.835a4,4,0,0,1,8,0v22.022A4,4,0,0,1,396.52,313.857Z" transform="translate(-241.165 -152.335)" fill="#3f3d56"/>
  <path id="Path_27" data-name="Path 27" d="M396.52,346.835a4,4,0,0,1-4-4V320.814a4,4,0,0,1,8,0v22.022a4,4,0,0,1-4,4Z" transform="translate(-241.165 -152.335)" fill="#3f3d56"/>
  <path id="Path_28" data-name="Path 28" d="M724.52,328.835a4,4,0,0,1-4-4V271.1a4,4,0,1,1,8,0v53.733a4,4,0,0,1-4,4Z" transform="translate(-241.165 -152.335)" fill="#3f3d56"/>
  <path id="Path_29" data-name="Path 29" d="M569.612,170.681h-31a2.5,2.5,0,0,1,0-5h31a2.5,2.5,0,0,1,0,5Z" transform="translate(-241.165 -152.335)" fill="#fff"/>
  <circle id="Ellipse_1" data-name="Ellipse 1" cx="2" cy="2" r="2" transform="translate(342.447 13.846)" fill="#fff"/>
  <path id="Path_30" data-name="Path 30" d="M472.106,181.408h-27a5,5,0,0,1,0-10h27a5,5,0,0,1,0,10Z" transform="translate(-241.165 -152.335)" fill="#e6e6e6"/>
  <path id="Path_31" data-name="Path 31" d="M574.52,391.03h-27a5,5,0,0,1,0-10h27a5,5,0,0,1,0,10Z" transform="translate(-241.165 -152.335)" fill="#e6e6e6"/>
  <circle id="Ellipse_2" data-name="Ellipse 2" cx="4.5" cy="4.5" r="4.5" transform="translate(403.441 19.573)" fill="#e6e6e6"/>
  <circle id="Ellipse_3" data-name="Ellipse 3" cx="4.5" cy="4.5" r="4.5" transform="translate(417.441 19.573)" fill="#e6e6e6"/>
  <circle id="Ellipse_4" data-name="Ellipse 4" cx="4.5" cy="4.5" r="4.5" transform="translate(431.441 19.573)" fill="#e6e6e6"/>
  <path id="Path_32" data-name="Path 32" d="M647.323,461.03H460.59A18.154,18.154,0,0,1,442.456,442.9V424.164A18.154,18.154,0,0,1,460.59,406.03H647.323a18.154,18.154,0,0,1,18.134,18.134V442.9A18.154,18.154,0,0,1,647.323,461.03Zm-186.732-53a16.152,16.152,0,0,0-16.134,16.134V442.9a16.152,16.152,0,0,0,16.134,16.134H647.323A16.152,16.152,0,0,0,663.457,442.9V424.164a16.152,16.152,0,0,0-16.134-16.134Z" transform="translate(-241.165 -152.335)" fill="#e6e6e6"/>
  <path id="Path_33" data-name="Path 33" d="M574.52,530.03h-27a5,5,0,0,1,0-10h27a5,5,0,0,1,0,10Z" transform="translate(-241.165 -152.335)" fill="#e6e6e6"/>
  <path id="Path_34" data-name="Path 34" d="M580.723,675.03H541.318a7.3,7.3,0,1,1,0-14.595h39.405a7.3,7.3,0,0,1,0,14.595Z" transform="translate(-241.165 -152.335)" fill="#fff"/>
  <path id="Path_35" data-name="Path 35" d="M647.323,600.03H460.59A18.154,18.154,0,0,1,442.456,581.9V563.164A18.154,18.154,0,0,1,460.59,545.03H647.323a18.154,18.154,0,0,1,18.134,18.134V581.9a18.154,18.154,0,0,1-18.134,18.134Zm-186.732-53a16.152,16.152,0,0,0-16.134,16.134V581.9a16.152,16.152,0,0,0,16.134,16.134H647.323A16.152,16.152,0,0,0,663.457,581.9V563.164a16.152,16.152,0,0,0-16.134-16.134Z" transform="translate(-241.165 -152.335)" fill="#e6e6e6"/>
  <rect id="Rectangle_5" data-name="Rectangle 5" width="241.5" height="2" transform="translate(198.94 193.5)" fill="#e6e6e6"/>
  <path id="Path_36" data-name="Path 36" d="M675.325,425.2a6.48,6.48,0,0,0,7.143,5.538,6.219,6.219,0,0,0,1-.215l13.435,18.182,11.625-3.571-21.1-22.918a6.462,6.462,0,0,0-6.753-4.08,6.184,6.184,0,0,0-5.381,6.895Q675.312,425.116,675.325,425.2Z" transform="translate(-241.165 -152.335)" fill="#ffb6b6"/>
  <path id="Path_37" data-name="Path 37" d="M844.386,552.853a6.48,6.48,0,0,1-.172-9.037,6.224,6.224,0,0,1,.773-.677L838.435,521.5l9.81-7.187,5.77,30.61a6.462,6.462,0,0,1-.763,7.852,6.184,6.184,0,0,1-8.744.195Z" transform="translate(-241.165 -152.335)" fill="#ffb6b6"/>
  <path id="Path_38" data-name="Path 38" d="M547.623,582.429h-9.9l-4.71-38.19h14.613Z" fill="#ffb6b6"/>
  <path id="Path_39" data-name="Path 39" d="M789.136,745.093H758.689v-.385a11.851,11.851,0,0,1,11.85-11.851h0l5.562-4.219,10.377,4.22h2.658Z" transform="translate(-241.165 -152.335)" fill="#2f2e41"/>
  <path id="Path_40" data-name="Path 40" d="M590.623,582.429h-9.9l-4.71-38.19h14.613Z" fill="#ffb6b6"/>
  <path id="Path_41" data-name="Path 41" d="M832.136,745.093H801.689v-.385a11.851,11.851,0,0,1,11.85-11.851h0l5.562-4.219,10.377,4.22h2.658Z" transform="translate(-241.165 -152.335)" fill="#2f2e41"/>
  <path id="Path_42" data-name="Path 42" d="M759.456,529.488s-11.27,15.712-3.135,42.856,3.568,51.412,5.852,56.278,6.88,9.487,3.082,13.177-5.8,6.689-2.8,7.689,13,71,13,71l17,1s6.158-32.517-.421-58.758c0,0,1.444-19.05-1.567-24.646s-2.421-.548-2.216-7.572a61.672,61.672,0,0,1,2.2-15.024c1-4,1.579-44.315,1.579-44.315l22.1,49.8a13.322,13.322,0,0,1,.73,5.761c-.409,2.756-.413,6.874.089,8.315s1.061,1.744.781,4.592-.279,78.391-.279,78.391h19l9-75.542a24.752,24.752,0,0,1-4-6c-2-4-2.078-4.22-1.039-7.11s1.039-8.52,1.039-10.2,1.039-78.182-11.981-89.434S759.456,529.488,759.456,529.488Z" transform="translate(-241.165 -152.335)" fill="#2f2e41"/>
  <path id="Path_43" data-name="Path 43" d="M817.8,409.4l-18.981-4.918-8.86-12.22-21.041,2.586-4.479,16.668-14.98,8.7s8.279,87.572,6.31,92.38-9.031,4.411-3,10.61,6.83,3.7,5.43,10.45-11.6,13.89,0,13.819,81.6-1.071,79.6-9.071-1.969-5.969-4.984-10.984-5.045-2.213-4.031-9.614.015-12.4.015-16.4-3.351-40.349-3.351-40.349Z" transform="translate(-241.165 -152.335)" fill="#3f3d56"/>
  <path id="Path_44" data-name="Path 44" d="M758.582,418.534S739.8,416.4,735.8,425.4s-14.081,27.74-14.081,27.74-7.859-8.222-8.62-11.949c-.646-3.164-1,2.121-6.28-3.6-2.366-2.564-.366-2.564-3.366-3.564l-6-2-10,9s-.2,10.874,5,11-2-2,5,5c3.614,3.614.3,3.015,6.323,6.694s5.344,3.663,7.184,5.671,11.714,3.469,11.714,3.469l44.221-24.47Z" transform="translate(-241.165 -152.335)" fill="#3f3d56"/>
  <path id="Path_45" data-name="Path 45" d="M807.934,413.186s8.053-11.8,21.817,3.53,24.055,85.3,23.409,87.817-4.275,1.071.039,5.291,7.315,1.22,4.315,4.22-9.261,5.823-4.131,6.912-14.827,7.08-14.827,7.08-2.908-1.063-3.031-8.07c-.069-3.936,1.931-5.936-1.069-6.936s.689-7.678.374-8.832-19.315-52.154-19.315-52.154Z" transform="translate(-241.165 -152.335)" fill="#3f3d56"/>
  <circle id="Ellipse_5" data-name="Ellipse 5" cx="23.056" cy="23.056" r="23.056" transform="translate(512.062 191.726)" fill="#ffb6b6"/>
  <path id="Path_46" data-name="Path 46" d="M791.456,385.03c-5.45-4.26,2-23-7-19,0,0-11-7-13.21-2.4-2.559,5.326-11.66,2.91-17.25,1.03a13.583,13.583,0,0,0,.93-3.19,25.536,25.536,0,0,1-3.27,2.19,6.638,6.638,0,0,1-2-1.64,4.062,4.062,0,0,1-.51-4.61c.93-1.43,2.85-1.87,3.98-3.14a1.367,1.367,0,0,0,.188-1.256,3.594,3.594,0,0,1,3.22-4.5,1.293,1.293,0,0,0,.613-.133,14.01,14.01,0,0,0,2.61-2.06,25.9,25.9,0,0,1-3.94-.11c-.27-.03-.54-.06-.81-.1a8.857,8.857,0,0,1,5.47-4.97,26.015,26.015,0,0,1,7.92-1.11l4.64-.15a46.4,46.4,0,0,1,9.79.34,23.909,23.909,0,0,1,16.57,11.84C802.786,358.21,806.456,378.03,791.456,385.03Z" transform="translate(-241.165 -152.335)" fill="#2f2e41"/>
  <path id="Path_47" data-name="Path 47" d="M732.623,493.6l-118.85,42.02a11.764,11.764,0,0,1-15-7.162L578.36,470.707a11.765,11.765,0,0,1,7.162-15l118.85-42.021a11.765,11.765,0,0,1,15,7.162L739.785,478.6a11.765,11.765,0,0,1-7.162,15Z" transform="translate(-241.165 -152.335)" fill="#6c63ff"/>
  <path id="Path_48" data-name="Path 48" d="M606.356,469.118c-7.878,5.184-17.975,1.283-21.506-4.4l.563-.32C592.12,460.218,602.08,462.547,606.356,469.118Z" transform="translate(-241.165 -152.335)" fill="#fff"/>
  <path id="Path_49" data-name="Path 49" d="M705.078,483.825a6.447,6.447,0,0,1-5.161-.093c-3.382-1.68-4.969-6.663-6.245-10.667-.371-1.165-.721-2.265-1.078-3.164l-.005-.014a7.171,7.171,0,0,1,4.345-9.1l15.986-5.652a6.443,6.443,0,0,1,5.155.092c3.381,1.678,4.97,6.66,6.246,10.662.372,1.167.724,2.27,1.082,3.17a7.175,7.175,0,0,1-4.343,9.119Z" transform="translate(-241.165 -152.335)" fill="#fff"/>
  <path id="Path_50" data-name="Path 50" d="M607.119,499.727a1.688,1.688,0,0,1-1.717-.285,2.112,2.112,0,0,1-.691-1.952,1.694,1.694,0,0,1,1.19-1.314l6.084-2.151a1.7,1.7,0,0,1,1.75.275,2.112,2.112,0,0,1,.69,1.952,1.7,1.7,0,0,1-1.19,1.312l-6.084,2.151Z" transform="translate(-241.165 -152.335)" fill="#fff"/>
  <path id="Path_51" data-name="Path 51" d="M603.887,513.533a2.992,2.992,0,0,1-2.889-1.08,3.743,3.743,0,0,1-.538-3.63,3,3,0,0,1,2.516-1.88l22.663-7.605a3.008,3.008,0,0,1,2.95,1.074,3.743,3.743,0,0,1,.536,3.63,3.016,3.016,0,0,1-2.516,1.877l-22.663,7.605Z" transform="translate(-241.165 -152.335)" fill="#fff"/>
  <rect id="Rectangle_6" data-name="Rectangle 6" width="149.135" height="0.712" transform="matrix(0.943, -0.333, 0.333, 0.943, 342.045, 330.8)" fill="#fff"/>
  <circle id="Ellipse_6" data-name="Ellipse 6" cx="4" cy="4" r="4" transform="translate(456.291 311.695)" fill="#6c63ff"/>
  <circle id="Ellipse_7" data-name="Ellipse 7" cx="3" cy="3" r="3" transform="translate(470.291 314.695)" fill="#6c63ff"/>
  <path id="Path_58" data-name="Path 58" d="M241.165,746.475a1.186,1.186,0,0,0,1.19,1.19h715.29a1.19,1.19,0,1,0,0-2.38H242.355a1.186,1.186,0,0,0-1.19,1.19Z" transform="translate(-241.165 -152.335)" fill="#ccc"/>
  <path id="Path_59" data-name="Path 59" d="M489.819,720.688a2.807,2.807,0,0,1-2.035-4.866l.192-.765-.076-.184a7.539,7.539,0,0,0-13.907.052c-2.275,5.478-5.17,10.965-5.883,16.758a22.3,22.3,0,0,0,.391,7.671,89.419,89.419,0,0,1-8.134-37.139,86.312,86.312,0,0,1,.535-9.628q.443-3.931,1.231-7.807a90.455,90.455,0,0,1,17.938-38.337,24.073,24.073,0,0,0,10.012-10.387,18.362,18.362,0,0,0,1.67-5.018c-.487.064-1.838-7.359-1.47-7.815-.679-1.031-1.895-1.543-2.637-2.549-3.689-5-8.773-4.129-11.426,2.669-5.669,2.861-5.724,7.606-2.245,12.169,2.213,2.9,2.517,6.832,4.459,9.94-.2.256-.408.5-.607.759a91.038,91.038,0,0,0-9.5,15.054,37.846,37.846,0,0,0-2.259-17.579c-2.163-5.217-6.216-9.611-9.786-14.122-4.288-5.418-13.08-3.053-13.836,3.814q-.011.1-.021.2.8.449,1.557.952a3.808,3.808,0,0,1-1.535,6.93l-.078.012a37.883,37.883,0,0,0,1,5.665c-4.579,17.71,5.307,24.161,19.424,24.45.312.16.615.32.927.471a92.923,92.923,0,0,0-5,23.539,88.135,88.135,0,0,0,.064,14.231l-.024-.168a23.289,23.289,0,0,0-7.95-13.448c-6.118-5.026-14.762-6.877-21.363-10.917a4.371,4.371,0,0,0-6.694,4.252q.013.088.027.176a25.577,25.577,0,0,1,2.868,1.382q.8.449,1.557.952a3.808,3.808,0,0,1-1.535,6.93l-.078.012-.16.024A37.923,37.923,0,0,0,432.4,709.95c2.863,15.46,15.162,16.927,28.317,12.425h.008a92.9,92.9,0,0,0,6.24,18.218h22.293c.08-.248.152-.5.224-.751a25.328,25.328,0,0,1-6.169-.367c1.654-2.03,3.308-4.075,4.962-6.1a1.381,1.381,0,0,0,.1-.12c.839-1.039,1.686-2.069,2.525-3.108h0a37.1,37.1,0,0,0-1.087-9.451Z" transform="translate(-241.165 -152.335)" fill="#f2f2f2"/>
</svg>
