<svg xmlns="http://www.w3.org/2000/svg" width="708" height="555.868" viewBox="0 0 708 555.868">
  <g id="sign" transform="translate(0 0)">
    <path id="Path_133" data-name="Path 133" d="M890.465,679.515a211.726,211.726,0,0,1-46.2,37.27c-.392.241-.79.467-1.189.7L815.44,693.023c.29-.27.612-.572.958-.9,20.594-19.555,122.831-156.28,129.644-189.574C945.572,505.317,952.189,614.094,890.465,679.515Z" transform="translate(-246 -172.066)" fill="#f0f0f0"/>
    <path id="Path_134" data-name="Path 134" d="M849.6,721.505c-.523.125-1.054.241-1.588.348L827.279,703.5c.405-.141.879-.309,1.42-.5,8.9-3.15,35.394-12.66,61.764-23.492,28.334-11.644,56.533-24.8,62.6-33.227C951.76,648.244,911.686,707.622,849.6,721.505Z" transform="translate(-246 -172.066)" fill="#f0f0f0"/>
    <path id="Path_1" data-name="Path 1" d="M890.082,317.646h-2.953V236.753a46.819,46.819,0,0,0-46.819-46.819H668.926a46.819,46.819,0,0,0-46.819,46.819V680.542a46.819,46.819,0,0,0,46.819,46.819H840.31a46.819,46.819,0,0,0,46.819-46.819V375.228h2.953Z" transform="translate(-246 -172.066)" fill="#3f3d56"/>
    <path id="Path_2" data-name="Path 2" d="M877.163,237.074V680.217a34.956,34.956,0,0,1-34.969,34.957H669.984a34.955,34.955,0,0,1-34.957-34.959V237.074a34.955,34.955,0,0,1,34.959-34.957h20.9A16.619,16.619,0,0,0,706.266,225h98.182a16.6,16.6,0,0,0,15.384-22.88h22.362A34.957,34.957,0,0,1,877.163,237.074Z" transform="translate(-246 -172.066)" fill="#fff"/>
    <path id="Path_3" data-name="Path 3" d="M823.595,467.355H672.228a10.011,10.011,0,0,1-10-10v-4.978a10.011,10.011,0,0,1,10-10H823.6a10.011,10.011,0,0,1,10,10v4.978a10.011,10.011,0,0,1-10,10Z" transform="translate(-246 -172.066)" fill="#f0f0f0"/>
    <path id="Path_4" data-name="Path 4" d="M823.595,510.262H672.228a10.011,10.011,0,0,1-10-10v-4.978a10.011,10.011,0,0,1,10-10H823.6a10.011,10.011,0,0,1,10,10v4.978A10.011,10.011,0,0,1,823.595,510.262Z" transform="translate(-246 -172.066)" fill="#f0f0f0"/>
    <path id="Path_5" data-name="Path 5" d="M831.166,457.759H679.8a10.512,10.512,0,0,1-10.5-10.5v-4.978a10.512,10.512,0,0,1,10.5-10.5H831.167a10.512,10.512,0,0,1,10.5,10.5v4.978A10.512,10.512,0,0,1,831.166,457.759ZM679.8,433.781a8.51,8.51,0,0,0-8.5,8.5v4.978a8.509,8.509,0,0,0,8.5,8.5H831.166a8.509,8.509,0,0,0,8.5-8.5v-4.978a8.51,8.51,0,0,0-8.5-8.5Z" transform="translate(-246 -172.066)" fill="#3f3d56"/>
    <path id="Path_6" data-name="Path 6" d="M831.166,500.666H679.8a10.512,10.512,0,0,1-10.5-10.5v-4.977a10.512,10.512,0,0,1,10.5-10.5H831.167a10.512,10.512,0,0,1,10.5,10.5v4.978A10.512,10.512,0,0,1,831.166,500.666ZM679.8,476.689a8.509,8.509,0,0,0-8.5,8.5v4.978a8.51,8.51,0,0,0,8.5,8.5H831.167a8.51,8.51,0,0,0,8.5-8.5v-4.978a8.509,8.509,0,0,0-8.5-8.5Z" transform="translate(-246 -172.066)" fill="#3f3d56"/>
    <path id="Path_7" data-name="Path 7" d="M877.163,237.074v96.39A103.539,103.539,0,0,1,747.28,233.389q0-4.24.341-8.392h56.826a16.6,16.6,0,0,0,15.384-22.88h22.362A34.957,34.957,0,0,1,877.163,237.074Z" transform="translate(-246 -172.066)" fill="#f0f0f0"/>
    <path id="Path_8" data-name="Path 8" d="M722.041,709.154c0,2.032-.076,4.038-.24,6.02H669.984a34.955,34.955,0,0,1-34.957-34.959v-47.4a77.073,77.073,0,0,1,87.014,76.337Z" transform="translate(-246 -172.066)" fill="#f44b01"/>
    <path id="Path_9" data-name="Path 9" d="M304.121,625.985a6.007,6.007,0,0,0,7.911-3.067l46.679-105.794a13.379,13.379,0,0,0-17.077-17.876h0a13.2,13.2,0,0,0-6.75,5.78,13.655,13.655,0,0,0-.654,1.293L287.55,612.115a6,6,0,0,0,3.067,7.912Z" transform="translate(-246 -172.066)" fill="#f44b01"/>
    <path id="Path_10" data-name="Path 10" d="M356.8,560.557,310.623,550.3l11.428-30.232a31.95,31.95,0,0,1,34.3-23.628l.445.049Z" transform="translate(-246 -172.066)" fill="#2f2e41"/>
    <path id="Path_11" data-name="Path 11" d="M450.055,627.5a7.028,7.028,0,0,1-6.412-4.177L396.964,517.527a14.38,14.38,0,0,1,25.609-13h0a14.609,14.609,0,0,1,.7,1.388l46.679,105.794a7,7,0,0,1-3.579,9.23l-13.961,6.16-.007-.016A6.943,6.943,0,0,1,450.055,627.5Z" transform="translate(-246 -172.066)" fill="#f44b01"/>
    <path id="Path_12" data-name="Path 12" d="M385.485,591.169a6.007,6.007,0,0,0-6,6V720.183a6.007,6.007,0,0,0,6,6h14.76a6.007,6.007,0,0,0,6-6V597.169a6.007,6.007,0,0,0-6-6Z" transform="translate(-246 -172.066)" fill="#f44b01"/>
    <path id="Path_13" data-name="Path 13" d="M356.293,591.169a6.007,6.007,0,0,0-6,6V720.183a6.007,6.007,0,0,0,6,6h14.76a6.007,6.007,0,0,0,6-6V597.169a6.007,6.007,0,0,0-6-6Z" transform="translate(-246 -172.066)" fill="#f44b01"/>
    <path id="Path_23" data-name="Path 23" d="M51,0A51,51,0,1,1,0,51,51,51,0,0,1,51,0Z" transform="translate(80.828 188.224)" fill="#f44b01"/>
    <path id="Path_14" data-name="Path 14" d="M394.8,432.7c3.306-.092,7.42-.207,10.59-2.522a8.133,8.133,0,0,0,3.2-6.073,5.471,5.471,0,0,0-1.86-4.493c-1.655-1.4-4.073-1.727-6.678-.961l2.7-19.726-1.981-.271-3.173,23.19,1.655-.759c1.918-.88,4.552-1.328,6.188.055a3.515,3.515,0,0,1,1.153,2.9,6.147,6.147,0,0,1-2.381,4.528c-2.467,1.8-5.746,2.034-9.466,2.138Z" transform="translate(-246 -172.066)" fill="#2f2e41"/>
    <rect id="Rectangle_1" data-name="Rectangle 1" width="10.772" height="2" transform="translate(166.55 228.559)" fill="#2f2e41"/>
    <rect id="Rectangle_2" data-name="Rectangle 2" width="10.772" height="2" transform="translate(132.55 228.559)" fill="#2f2e41"/>
    <path id="Path_15" data-name="Path 15" d="M428.362,628.119l-18.356-134a6,6,0,0,0-5.945-5.186H390.2a6.026,6.026,0,0,0,.09-1v-5a6,6,0,0,0-6-6h-12a6,6,0,0,0-6,6v5a6.029,6.029,0,0,0,.09,1H352.53a6,6,0,0,0-5.945,5.186l-18.356,134a6,6,0,0,0,5.944,6.814h88.244a6,6,0,0,0,5.944-6.814Z" transform="translate(-246 -172.066)" fill="#2f2e41"/>
    <path id="Path_16" data-name="Path 16" d="M399.8,560.557V496.486l.445-.049a31.961,31.961,0,0,1,34.315,23.68l11.411,30.18Z" transform="translate(-246 -172.066)" fill="#2f2e41"/>
    <path id="Path_17" data-name="Path 17" d="M375.26,463.882,339.984,450.19c-5.768-2.239-11.569-4.41-17.306-6.726a19.726,19.726,0,0,1-6.662-3.926,13.09,13.09,0,0,1-3.321-6.427c-1.223-5.171-1-10.825-.915-16.1a122.7,122.7,0,0,1,1.422-17.241,83.286,83.286,0,0,1,10.65-30.38c9.893-16.232,26.937-28.444,46.543-27.469,9.077.451,18.206,3.708,24.949,9.914a15.75,15.75,0,0,0,2.355,2.282,3.268,3.268,0,0,0,1.876.126q1.234-.079,2.471-.121a51.042,51.042,0,0,1,8.566.359,27.121,27.121,0,0,1,14.13,5.867c3.37,2.9,6.112,6.992,6.395,11.54a13.66,13.66,0,0,1-4.614,11.151c-4.209,3.547-10.213,2.3-15.261,2.033l-18.494-.98-9.37-.5c-1.929-.1-1.924,2.9,0,3l24.9,1.319c4,.212,8.127.732,12.132.492a13.574,13.574,0,0,0,8.333-3.352,16.628,16.628,0,0,0,5.037-15.6c-1.284-6.138-5.852-11.215-11.207-14.235-7.286-4.11-15.988-4.5-24.141-3.9l1.061.439c-9.222-9.9-23.349-14.077-36.61-12.615-14,1.544-26.456,9.356-35.4,20.038-9.976,11.909-15.413,26.76-17.526,42.03a139.837,139.837,0,0,0-1.082,24.88,31.35,31.35,0,0,0,1.852,10.751,15.39,15.39,0,0,0,7.225,7.746A103.4,103.4,0,0,0,329.44,449.3l13,5.044,25.528,9.909,6.5,2.522c1.8.7,2.581-2.2.8-2.893Z" transform="translate(-246 -172.066)" fill="#2f2e41"/>
    <path id="Path_18" data-name="Path 18" d="M319.8,361.934a15.5,15.5,0,1,1,15.5-15.5A15.5,15.5,0,0,1,319.8,361.934Zm0-28a12.5,12.5,0,1,0,12.5,12.5A12.5,12.5,0,0,0,319.8,333.934Z" transform="translate(-246 -172.066)" fill="#2f2e41"/>
    <rect id="Rectangle_3" data-name="Rectangle 3" width="42.236" height="42.236" transform="matrix(0.794, 0.608, -0.608, 0.794, 299.351, 260.262)" fill="#f0f0f0"/>
    <path id="Path_19" data-name="Path 19" d="M389.3,228.934a33.949,33.949,0,0,1,27.277,13.7l19.59-25.614-58.779-44.956-44.956,58.779,25.333,19.376A34,34,0,0,1,389.3,228.934Z" transform="translate(-246 -172.066)" fill="#f0f0f0"/>
    <path id="Path_20" data-name="Path 20" d="M953,727.934H247a1,1,0,0,1,0-2H953a1,1,0,0,1,0,2Z" transform="translate(-246 -172.066)" fill="#3f3d56"/>
    <path id="Path_21" data-name="Path 21" d="M780.687,562H708.825a10.011,10.011,0,0,1-10-10v-4.978a10.011,10.011,0,0,1,10-10h71.862a10.011,10.011,0,0,1,10,10V552A10.011,10.011,0,0,1,780.687,562Z" transform="translate(-246 -172.066)" fill="#f44b01"/>
    <path id="Path_22" data-name="Path 22" d="M788.259,552.407H716.4a10.512,10.512,0,0,1-10.5-10.5v-4.978a10.512,10.512,0,0,1,10.5-10.5h71.862a10.512,10.512,0,0,1,10.5,10.5v4.978a10.512,10.512,0,0,1-10.5,10.5ZM716.4,528.43a8.51,8.51,0,0,0-8.5,8.5v4.978a8.51,8.51,0,0,0,8.5,8.5h71.862a8.51,8.51,0,0,0,8.5-8.5V536.93a8.51,8.51,0,0,0-8.5-8.5Z" transform="translate(-246 -172.066)" fill="#3f3d56"/>
  </g>
</svg>
