<svg xmlns="http://www.w3.org/2000/svg" width="959.279" height="685.958" viewBox="0 0 959.279 685.958">
  <g id="standout" transform="translate(0 0.003)">
    <path id="Path_1" data-name="Path 1" d="M867.063,418.092c-1.794-4.613.769-6.919,1.794-11.019s-2.307-16.913-2.307-16.913-10.763-44.333-14.094-53.046c-1.41-3.687-4.471-6.223-7.535-7.927-.208-1.131-.508-1.86-.922-2.068-2.968-1.485-10.363-4.71-15.291-5.6a25,25,0,0,0-3.258-4.406,10.416,10.416,0,0,0,1.161-5.394c-.314-4.835-3.976-9.167-3.5-13.989.361-3.657,3.034-6.66,4.066-10.187a11.979,11.979,0,0,0-1.362-9.447l2.274,2.419a8.5,8.5,0,0,0-.634-10.267c-2.4-2.652-6.414-3.646-8.276-6.7-1.914-3.138-.887-7.4-2.7-10.6-4.433-7.836-15.781-2.281-22.578-5.016-2.793-1.124-4.917-2.361-8.059-2.272a31.489,31.489,0,0,0-7.862,1.468,16.609,16.609,0,0,0-9.01,6.458,5.584,5.584,0,0,1,.7-.673c1.647-1.291,4.536-1.183,5.406.72a3.189,3.189,0,0,1,.254,1.52c-.143,2.294-2.147,4.008-4.139,5.156s-4.232,2.109-5.532,4.005c-2.145,3.129-.884,7.329-.883,11.122a16.124,16.124,0,0,1-6.111,12.52L765.9,285a54.65,54.65,0,0,0-6.678,19.583L769,296.507a42.992,42.992,0,0,0-6.421,19.084l7.848-8.041a3.968,3.968,0,0,1,.518,2.064l-.818,3.156a20.5,20.5,0,0,1-.96,1.832c-1.263,2.168-2.568,4.838-1.387,7.052l.006,0c-1.243,4.183-3.119,8.368-7.291,10.4,4.628.484,9.457-1.83,11.547-5.512a10.311,10.311,0,0,0,1.228,1.86l.4.5-1.153.769-3.09,2.06s-20.245,4.1-18.963,11.788c.053.316.116.694.187,1.117l-5.825,9.9-8.456,28.7s-4.356,9.225-3.588,13.069,0,5.381,0,12.3-3.331,9.738,0,15.375,13.325,22.038,13.325,22.038l2.2,1.646a10.257,10.257,0,0,0,.111,2.966c2.05,10.25,21.269,108.4,21.269,108.4s-9.738,77.646,9.994,82.515c2.475.611,4.905,1.165,7.266,1.658l2.984,19.612-1.794,24.857s-13.582,30.751,11.275,32.545,13.582-26.651,13.582-26.651a13.51,13.51,0,0,0,1.538-7.944c-.253-2.281-2.387-14.152-4.48-25.569,9.433-1.131,7.668-11.143,6.411-15.545a2.549,2.549,0,0,0,1.143-1.425c.284-1.022-.377-5.044-1.577-10.679-.977-5.6-2.647-14.671-3.786-20.814l6.131,1,25.882-151.705s.171-2.415.093-5.947a96.077,96.077,0,0,1,10.926-4.816c8.457-3.331,11.788-15.632,14.607-20.757S868.856,422.7,867.063,418.092Zm-91.9-96.591a5.482,5.482,0,0,1,2.835-.961c-.219,1.192-2.269,1.54-3.988,2.164a5.074,5.074,0,0,1,1.153-1.2Zm-12.914,76.347c2.076,3.411-1.683,12.654-5.07,19.988-1.941-1.673-3.967-1.145-1.593-5.894a24.109,24.109,0,0,0,2.819-9.738c0-.586.3-4.891,2.825-6.68a13.481,13.481,0,0,0,1.019,2.324Zm-7.777,29.439c1.175-.478,2.954-1.213,5.357-2.03-1.151,1.511-2.465,3.311-3.787,5.276a3.969,3.969,0,0,1-1.57-3.245Zm83.117,3.362c-1.558-1.655-2.817-3.136-3.853-4.461q2.9.763,5.9,1.642a7.024,7.024,0,0,0,2.986-.2c.089,1.772.089,4.3.089,4.3l-2.807,1.943a16.46,16.46,0,0,0-2.319-3.224Zm7.953-8.887-.093.083a17,17,0,0,0-.684-2.984c-1.679-5.3-2.577-14.694-3.054-22.714l4.848,16.307s.256,8.2-1.017,9.308Z" transform="translate(-120.359 -107.022)" fill="#d0cde1"/>
    <path id="Path_2" data-name="Path 2" d="M746,354.406s-26.291-45.187-27.112-50.116-13.967-13.967-13.967-13.967c-4.491-4.491-11.86-5.912-19.615-5.839,2.92-2.416-7.507-4.04-8.318-5.664-.822-1.643-3.286-1.643-6.573-4.108s-11.489-.411-11.49-.411a30.276,30.276,0,0,1-2.549-8.188,22.907,22.907,0,0,0,5.412-14.816c0-.059,0-.117,0-.176.209.325.418.653.628.99,1.539-9.219,4.256-16.882-.922-25.292a28.356,28.356,0,0,0-16.13-12.331l-4.932,3.945,1.917-4.6a26.1,26.1,0,0,0-4.874-.282l-4.437,5.705,1.837-5.51A28.085,28.085,0,0,0,615.5,225.272c-5.648,8.143-5.27,19.463.285,27.67.019-.057.033-.114.052-.171a23,23,0,0,0,11.754,18.622l1.4,11.162h0a7.651,7.651,0,0,1-4.575,2.018c-2.465,0-4.929,6.573-4.929,6.573s-1.4.7-2.9,4.033c-3.878,2.64-15.709,10.934-20.1,16.73-2.6,1.278-5.386,4.12-4.933,10.457.822,11.5,0,64.9,0,64.9s-7.394,45.187-4.929,48.473-.822,13.967-.822,13.967l2.465.548V453s-7.413,34.366,4.108,32.863c18.9-2.465,4.929-30.4,4.929-30.4v-3.2l3.286.73s1.643-11.5,4.929-12.324c1.143-.286,2.485-3.357,3.749-7.238.737,6.055,1.181,9.7,1.181,9.7l5.141-1.142,1.432,5.25a7.088,7.088,0,0,0,1.1.5l-1.1,6.072s-.822,6.573,0,10.681c.414,2.072,15.665,46.353,30.682,89.743l-.283,10.489s-7.394,8.216-5.751,13.967-4.108,53.4-4.108,53.4l-4.929,23.826,1.24.382-1.139,4.175a8.285,8.285,0,0,0-2.566,2.016c-6.573,7.394-14.788,28.755-14.788,28.755s-14.788,22.183,8.216,21.361,24.647-9.037,24.647-9.037,3.286-21.361,3.286-22.183-1.643-9.267-1.643-9.267l-.638-.7.446-10.249,4.3,1.323s4.108-21.361,7.394-23.826c1.149-.861,4.2-10.457,7.693-22.782,3.566,10.268,7.02,45.772,8.14,49a11.673,11.673,0,0,0-1.045,1.721,199.638,199.638,0,0,1-12.324,20.539s-26.291,15.61,0,19.718c0,0,14.788.822,22.183-4.108s27.112-12.324,27.112-13.967-4.929-25.8-9.859-23.169h0l-3.3-7.595,3.3-1.278-20.8-93.364a47.144,47.144,0,0,0,1.082-6.047c0-4.3,10.638-88.077,13.345-109.326,11.914,3.375,22.8-21.3,22.8-21.3l2.7-4.862,3.872,2.4s3.286-8.216,8.216-9.037,13.967-44.365,13.967-50.116A26.74,26.74,0,0,0,746,354.406Zm-38.279,64.37a22.14,22.14,0,0,0-2.8-3.573,101.749,101.749,0,0,0,4.929-17.253c1.643-9.037-2.465-38.614-2.465-38.614l-.072-2.009c4.032,5.293,9.109,12.351,9.109,14.332a6.162,6.162,0,0,0,2.465,4.929l-4.929,17.253s-3.286,8.216-4.108,12.324a41.943,41.943,0,0,0-.822,7.394l1.165.721Z" transform="translate(-120.359 -107.022)" fill="#d0cde1"/>
    <path id="Path_3" data-name="Path 3" d="M369.881,369.613l4.384-.986L356.19,317.689l-39.025-14.378s-.149.166-.425.451c-3.329-3.222-4.742-7.9-5.332-11.576a23,23,0,0,0,10.722-33.774c3.216-.772,4.364-3.689,5.443-7.168a14.389,14.389,0,0,0-2.04-.444l1.517-3.4-2.666-.239.682-3.18-3.4,2.347a6.946,6.946,0,0,0-1.158-6.632,13.268,13.268,0,0,0-5.687-4.01,25.373,25.373,0,0,0-26.036,4.551l-.246-.957a33.045,33.045,0,0,0-12.621,21.871c-1.088,8.574,3.03,17.3,8.384,24.088-.045-.3-.093-.592-.143-.887q.347.478.717.938l.658,25.007-1.648,1.413s-27.653,12.511-28.73,27.452l0,.011c-1.66,7.274-2.481,45.066-2.481,45.066h2.275l-2.275,14.788-14.789,57.51s-18.9,24.647-2.465,29.577c10.211,3.063,13.124-8.783,13.867-18.193.592,2.332,2.361,3.909,5.851,4.226.275.025.568.046.852.069-7.769,20.078-2.495,85.375-2.495,85.375-4.108,8.216,44.365,64.9,44.365,64.9l2.919-1.557.632,1.263c-1.624.156-2.729.294-2.729.294v25.469s-7.394,25.469,2.465,30.4c2.551,1.276,5.212.348,7.755-1.724-.486,7.86-1.183,19.589-1.183,22.264,0,4.108,10.681,11.5,10.681,11.5s2.465,9.037,22.183,9.037,4.93-23.826,4.93-23.826l-10.681-23.826s-.8.391-3.218-1.578l.866-9.528,4.816.425,6.573-96.125s5.751-85.444,6.573-98.589a91.489,91.489,0,0,0-.3-12.638l24.123-49.8Zm-17.8,31.877-2.465,8.589v-19ZM249.514,462.416c.02-3.011-.129-5.06-.129-5.06l16.062-32.124-.452,9.941S252.132,451.446,249.514,462.416Zm37.664,92.708,15.61-55.046,9.037,66.548-.648,24.193a38.568,38.568,0,0,1-2.638-6.94C306.074,574.021,287.178,555.124,287.178,555.124Z" transform="translate(-120.359 -107.022)" fill="#d0cde1"/>
    <path id="Path_4" data-name="Path 4" d="M509.508,685.884c-7.7-3.17-22.641-9.962-24.452-13.584s-10.867-31.7-10.867-31.7l-2.332.17c-.3-12.754-1.585-62.183-3.554-68.092,0,0,9.509-78.337-9.509-109.582l-3.427-13.844c1.125-5.55.98-18.4.257-20.57-.906-2.717,10.415-11.32,7.245-16.754s-11.773-24-11.773-24,.906-11.773-11.32-22.641c0,0-3.573-20.227-19.673-20.528-2.176-3.8-5.223-9.838-4.327-12.527.96-2.879,4.63-11.856,6.7-16.88a21.693,21.693,0,0,0,3.161-1.759c12.8-5.737,21.831-19.528,21.831-35.639,0-17.246-10.34-31.842-24.59-36.736a12.22,12.22,0,1,0-23.646-4.385,12.213,12.213,0,0,1,13.629-16.723,12.215,12.215,0,0,0-13.087,20.4,12.106,12.106,0,0,0,.5,1.314c-13.408,5.411-22.973,19.546-22.973,36.133,0,15.386,8.232,28.658,20.125,34.819-.063,5.005-1.3,13.443-8.207,18.585-3.566-1.629-8.514-3.417-11.689-2.606-1.642-1.28-4.119-1.7-7.491,1.669-6.792,6.792-12.679,24.452-12.679,35.32s1.358,73.809,1.358,73.809-7.245,2.717-2.264,6.792a5.873,5.873,0,0,0,3.658,1.359l4.945,36.677s-3.17,35.32,9.056,35.773a4.837,4.837,0,0,0,2.737-.672l-9.076,40.972s-20.829,13.584-37.131,40.3c-8.4,13.76-12.582,22.226-14.673,27.209l-2.987-1.852-10.415,19.924s-23.094,14.037-18.113,24.452,9.509,13.132,9.509,13.132l3.17-1.358,5.886,10.868s15.4,22.188,40.3,10.867a9.1,9.1,0,0,0,0-10.867c-4.075-5.887-14.49-18.565-14.49-18.565l6.792-34.414-1.405-.871,43.065-52.108s12.679-7.7,17.207-14.49S427.1,495.7,427.1,495.7l15.849,73.356s-.906,26.716,3.17,43.923a186.436,186.436,0,0,1,4.332,29.349l-1.162.085L452,662.79s-11.773,28.98-3.623,31.244a119.413,119.413,0,0,0,17.66,3.17l.906-3.17s34.867,19.018,47.546,4.981C514.489,699.015,517.206,689.053,509.508,685.884ZM385.436,463.551c1.359,1.358.906,7.7.906,7.7l-2.717,17.66-2.713,12.249a131.568,131.568,0,0,0-2.268-17.23l-1.253-33.843a2.616,2.616,0,0,0,.8.334c.906,0,.453-7.7.453-7.7s.529-1.375,1.188-3.544c1.76,5.27,3.91,8.709,6.51,9.431l.453,5.887s-5.887,2.717-.453,2.717a4.278,4.278,0,0,0,.933-.139l-.48,2.4S384.078,462.192,385.436,463.551Z" transform="translate(-120.359 -107.022)" fill="#d0cde1"/>
    <ellipse id="Ellipse_1" data-name="Ellipse 1" cx="364" cy="6" rx="364" ry="6" transform="translate(17.409 587.955)" fill="#3f3d56"/>
    <ellipse id="Ellipse_2" data-name="Ellipse 2" cx="400.398" cy="15.5" rx="400.398" ry="15.5" transform="translate(108.409 593.955)" fill="#3f3d56"/>
    <ellipse id="Ellipse_3" data-name="Ellipse 3" cx="196.5" cy="15.5" rx="196.5" ry="15.5" transform="translate(238.409 616.955)" fill="#3f3d56"/>
    <ellipse id="Ellipse_4" data-name="Ellipse 4" cx="87.5" cy="8" rx="87.5" ry="8" transform="translate(631.409 642.955)" fill="#3f3d56"/>
    <ellipse id="Ellipse_5" data-name="Ellipse 5" cx="41.5" cy="8" rx="41.5" ry="8" transform="translate(557.409 669.955)" fill="#3f3d56"/>
    <ellipse id="Ellipse_6" data-name="Ellipse 6" cx="41.5" cy="8" rx="41.5" ry="8" transform="translate(219.409 635.955)" fill="#3f3d56"/>
    <path id="Path_5" data-name="Path 5" d="M465.909,553.455l4,28,20-2-2-29Z" fill="#ffb8b8"/>
    <path id="Path_6" data-name="Path 6" d="M370.909,553.455l-4,28-20-2,2-29Z" fill="#ffb8b8"/>
    <path id="Path_7" data-name="Path 7" d="M462.268,370.478s-18,21-14,54,11,108,11,108l5,133,32-2,5-113,16-91,43,106s21,99,22,99,30-3,30-3l-14-117s-22-170-35-173S462.268,370.478,462.268,370.478Z" transform="translate(-120.359 -107.022)" fill="#2f2e41"/>
    <path id="Path_8" data-name="Path 8" d="M612.268,682.478s-18-12-25,2-1,24-1,24,6,4,3,8-4,30,22,26,13-31,13-31Z" transform="translate(-120.359 -107.022)" fill="#2f2e41"/>
    <path id="Path_9" data-name="Path 9" d="M465.268,682.478s18-12,25,2,1,24,1,24-6,4-3,8,4,30-22,26-13-31-13-31Z" transform="translate(-120.359 -107.022)" fill="#2f2e41"/>
    <path id="Path_10" data-name="Path 10" d="M486.768,175.978s9,25,2,39,11,30,11,30,47-24,41-36-16-28-14-38Z" transform="translate(-120.359 -107.022)" fill="#ffb8b8"/>
    <circle id="Ellipse_7" data-name="Ellipse 7" cx="32" cy="32" r="32" transform="translate(351.909 14.455)" fill="#ffb8b8"/>
    <path id="Path_11" data-name="Path 11" d="M481.268,213.478s32.108,26.718,56.054-11.141l24.946,14.141,13,152s-73,42-108,6l5-141Z" transform="translate(-120.359 -107.022)" fill="#d0cde1"/>
    <path id="Path_12" data-name="Path 12" d="M370.992,91.488l-45.083,29.967,16,74-21,115,34-51Z" fill="#575a89"/>
    <path id="Path_13" data-name="Path 13" d="M531.2,190.169l11.073,7.308,45,16-7,124,19,80-27,14s-5-38-36-57S524.122,195.861,531.2,190.169Z" transform="translate(-120.359 -107.022)" fill="#575a89"/>
    <path id="Path_14" data-name="Path 14" d="M456.268,384.478l13,9s-16.5,17.5-19.5,14.5a8.2,8.2,0,0,1-2.5-6.5l-3-7Z" transform="translate(-120.359 -107.022)" fill="#ffb8b8"/>
    <path id="Path_15" data-name="Path 15" d="M542.688,382.532l-4.42,6.945s-13,6-10,10,28,13,33,4l5-9Z" transform="translate(-120.359 -107.022)" fill="#ffb8b8"/>
    <path id="Path_16" data-name="Path 16" d="M452.268,227.478l-7,1-11.5,74.5s-4.5,13.5.5,45.5,9.951,52.838,9.951,52.838l22.049-15.838-10-26,13-95Z" transform="translate(-120.359 -107.022)" fill="#575a89"/>
    <path id="Path_17" data-name="Path 17" d="M571.268,211.478l16,2s18,19,21,39,2,77,2,77l-46,73-25-18,35-62-17-74Z" transform="translate(-120.359 -107.022)" fill="#575a89"/>
    <path id="Path_18" data-name="Path 18" d="M534.783,124.535a37.383,37.383,0,0,0-21.265-16.257l-6.5,5.2,2.528-6.067a34.415,34.415,0,0,0-6.426-.371l-5.85,7.521,2.421-7.264a37.026,37.026,0,0,0-25.542,15.193c-7.445,10.736-8.7,25.665-1.379,36.485,2.01-6.178,4.45-11.974,6.46-18.152a18.285,18.285,0,0,0,4.763.023l2.446-5.707.683,5.465c7.58-.66,18.824-2.11,26.011-3.439l-.7-4.193,4.181,3.484c2.2-.507,3.509-.967,3.4-1.318,5.345,8.616,10.641,14.12,15.985,22.736C538.028,145.725,541.609,135.622,534.783,124.535Z" transform="translate(-120.359 -107.022)" fill="#2f2e41"/>
    <ellipse id="Ellipse_8" data-name="Ellipse 8" cx="2.166" cy="4.332" rx="2.166" ry="4.332" transform="translate(410.486 41.118)" fill="#ffb8b8"/>
    <path id="Path_19" data-name="Path 19" d="M879.136,718.058c.922,31.558-17.518,43.124-40.659,43.8q-.806.024-1.605.029-1.61.012-3.188-.054c-20.929-.869-37.495-11.978-38.352-41.327-.887-30.373,36.812-69.836,39.64-72.755l.005,0,.162-.167S878.214,686.5,879.136,718.058Z" transform="translate(-120.359 -107.022)" fill="#bf68e6"/>
    <path id="Path_20" data-name="Path 20" d="M836.811,757.075l14.7-21.86-14.67,24.212.031,2.46q-1.61.012-3.188-.054l.729-31.619-.02-.244.027-.047.07-2.988-16.1-23.373L834.47,724.7l.057.632.551-23.89-13.9-24.232,13.944,20.035-.146-49.493v-.165l0,.162.923,39.007,12.673-15.845-12.631,19.205.277,21.369,11.661-20.855-11.618,24,.154,11.882,16.958-29.051-16.907,33.2Z" transform="translate(-120.359 -107.022)" fill="#3f3d56"/>
    <path id="Path_21" data-name="Path 21" d="M343.136,671.058c.922,31.558-17.518,43.124-40.659,43.8q-.806.024-1.605.029-1.61.012-3.188-.054c-20.929-.869-37.495-11.978-38.352-41.327-.887-30.373,36.812-69.836,39.64-72.755l.005,0,.162-.167S342.214,639.5,343.136,671.058Z" transform="translate(-120.359 -107.022)" fill="#bf68e6"/>
    <path id="Path_22" data-name="Path 22" d="M300.811,710.075l14.7-21.86-14.67,24.212.031,2.46q-1.61.012-3.188-.054l.729-31.619-.02-.244.027-.047.07-2.988-16.1-23.373L298.471,677.7l.057.632.551-23.89-13.9-24.232,13.944,20.035-.146-49.493v-.165l0,.162.923,39.007,12.672-15.845-12.631,19.205.277,21.369,11.661-20.855-11.618,24,.154,11.882,16.958-29.051-16.907,33.2Z" transform="translate(-120.359 -107.022)" fill="#3f3d56"/>
    <path id="Path_23" data-name="Path 23" d="M743.654,762.549c.541,18.524-10.282,25.313-23.866,25.709q-.473.014-.942.017-.945.007-1.871-.031c-12.284-.51-22.008-7.031-22.512-24.258-.521-17.828,21.608-40.992,23.268-42.706l0,0,.1-.1S743.113,744.026,743.654,762.549Z" transform="translate(-120.359 -107.022)" fill="#bf68e6"/>
    <path id="Path_24" data-name="Path 24" d="M718.81,785.451l8.628-12.831-8.611,14.212.018,1.444q-.945.007-1.871-.031l.428-18.56-.012-.143.016-.028.041-1.754L708,754.04l9.438,12.406.034.371.323-14.023-8.162-14.224,8.185,11.76-.085-29.051v-.1l0,.1.542,22.9,7.438-9.3L718.3,746.147l.162,12.543,6.845-12.241-6.82,14.086.09,6.974,9.954-17.052-9.924,19.484Z" transform="translate(-120.359 -107.022)" fill="#3f3d56"/>
    <path id="Path_25" data-name="Path 25" d="M1079.55,158.209c.029-.091.059-.184.088-.275-.012.04-.028.079-.04.119Z" transform="translate(-120.359 -107.022)" fill="#2f2e41"/>
    <path id="Path_26" data-name="Path 26" d="M939.811,688.831l74.068-110.146-73.916,122,.155,12.394q-8.111.062-16.064-.27l3.674-159.32-.1-1.229.136-.237.352-15.055L847,419.2l81.017,106.5.287,3.182,2.775-120.372-70.06-122.1,70.259,100.951-.733-249.38,0-.83.024.816,4.651,196.545,63.852-79.836-63.642,96.769,1.394,107.67,58.756-105.082L937.04,474.942l.776,59.87,85.447-146.378L938.076,555.7Z" transform="translate(-120.359 -107.022)" fill="#3f3d56"/>
    <path id="Path_27" data-name="Path 27" d="M183.514,684.561l50.4-74.951-50.3,83.015.105,8.434q-5.519.042-10.931-.184l2.5-108.412-.068-.836.092-.162.239-10.244-55.2-80.137,55.13,72.47.2,2.165,1.888-81.91L129.9,410.724l47.81,68.694-.5-169.7v-.565l.016.555,3.165,133.743L223.84,389.13l-43.307,65.848.948,73.267,39.982-71.505-39.835,82.277.528,40.74L240.3,480.15,182.333,593.968Z" transform="translate(-120.359 -107.022)" fill="#3f3d56"/>
  </g>
</svg>
