<svg xmlns="http://www.w3.org/2000/svg" width="627" height="567.986" viewBox="0 0 627 567.986">
  <g id="testimonial" transform="translate(0 0)">
    <path id="Path_1" data-name="Path 1" d="M711.247,733.993H560.521a6.616,6.616,0,0,1-6.609-6.608V622.005a6.616,6.616,0,0,1,6.609-6.609H711.246A6.616,6.616,0,0,1,717.854,622v105.38a6.616,6.616,0,0,1-6.607,6.608Z" transform="translate(-324.645 -166.007)" fill="#f2f2f2"/>
    <path id="Path_2" data-name="Path 2" d="M464.932,459.293a11.226,11.226,0,0,0-3.6-16.835l-.95-100.813-18.842,8.647,4.144,97.5a11.287,11.287,0,0,0,19.243,11.5Z" transform="translate(-324.645 -166.007)" fill="#9e616a"/>
    <path id="Path_3" data-name="Path 3" d="M464.424,316.121S446.095,307.23,443.56,324,430.6,384.438,430.6,384.438l31.639-2.238Z" transform="translate(-324.645 -166.007)" fill="#9e616a"/>
    <path id="Path_4" data-name="Path 4" d="M464.932,459.293a11.226,11.226,0,0,0-3.6-16.835l-.95-100.813-18.842,8.647,4.144,97.5a11.287,11.287,0,0,0,19.243,11.5Z" transform="translate(-324.645 -166.007)" fill="#9e616a"/>
    <path id="Path_5" data-name="Path 5" d="M464.424,316.121S446.095,307.23,443.56,324,430.6,384.438,430.6,384.438l31.639-2.238Z" transform="translate(-324.645 -166.007)" fill="rgb(21,30,82)"/>
    <path id="Path_6" data-name="Path 6" d="M411.353,704.466a3.613,3.613,0,0,1-2.619-6.263l.248-.984-.1-.236a9.7,9.7,0,0,0-17.9.067c-2.927,7.051-6.654,14.113-7.572,21.568a28.705,28.705,0,0,0,.5,9.872,115.085,115.085,0,0,1-10.469-47.8,111.067,111.067,0,0,1,.689-12.392q.571-5.06,1.584-10.047a116.419,116.419,0,0,1,23.087-49.341,30.982,30.982,0,0,0,12.886-13.369,23.632,23.632,0,0,0,2.149-6.458c-.627.082-1.265.134-1.892.175l-.6.031-.074,0a3.58,3.58,0,0,1-2.94-5.832l.813-1c.411-.514.833-1.018,1.244-1.532a1.781,1.781,0,0,0,.134-.154c.473-.586.946-1.162,1.419-1.748a10.352,10.352,0,0,0-3.394-3.28c-4.741-2.777-11.281-.854-14.706,3.435s-4.083,10.3-2.89,15.662a41.485,41.485,0,0,0,5.738,12.793c-.257.329-.525.648-.782.977a117.169,117.169,0,0,0-12.23,19.375,48.71,48.71,0,0,0-2.908-22.625c-2.783-6.715-8-12.37-12.595-18.175-5.519-6.973-16.835-3.93-17.807,4.909q-.014.128-.028.257,1.024.578,2,1.226a4.9,4.9,0,0,1-1.976,8.919l-.1.015a48.764,48.764,0,0,0,1.285,7.291,50.21,50.21,0,0,0,25,31.469c.4.206.792.411,1.193.607a119.6,119.6,0,0,0-6.438,30.3,113.432,113.432,0,0,0,.082,18.315l-.031-.216a29.974,29.974,0,0,0-10.232-17.308c-7.874-6.469-19-8.851-27.495-14.05a5.625,5.625,0,0,0-8.616,5.473q.017.114.035.227a32.936,32.936,0,0,1,3.692,1.779q1.024.578,2,1.226a4.9,4.9,0,0,1-1.976,8.919l-.1.015-.206.031a48.808,48.808,0,0,0,8.978,14.058A50.255,50.255,0,0,0,373.9,706.637h.01a119.563,119.563,0,0,0,8.032,23.447h28.692c.1-.319.2-.648.288-.967a32.6,32.6,0,0,1-7.939-.473c2.129-2.612,4.258-5.245,6.386-7.857a1.789,1.789,0,0,0,.134-.154c1.08-1.337,2.17-2.663,3.25-4v0a47.749,47.749,0,0,0-1.4-12.164Z" transform="translate(-324.645 -166.007)" fill="#f2f2f2"/>
    <path id="Path_7" data-name="Path 7" d="M834.353,704.466a3.613,3.613,0,0,1-2.619-6.263l.247-.984-.1-.236a9.7,9.7,0,0,0-17.9.067c-2.927,7.05-6.655,14.113-7.572,21.568a28.706,28.706,0,0,0,.5,9.872,115.085,115.085,0,0,1-10.469-47.8,111.1,111.1,0,0,1,.689-12.392q.571-5.06,1.584-10.047a116.421,116.421,0,0,1,23.087-49.341,30.983,30.983,0,0,0,12.886-13.369,23.635,23.635,0,0,0,2.149-6.458c-.627.082-1.265.134-1.892.175l-.6.031-.074,0a3.58,3.58,0,0,1-2.94-5.832l.813-1c.411-.514.833-1.018,1.244-1.532a1.786,1.786,0,0,0,.134-.154c.473-.586.946-1.162,1.419-1.748a10.352,10.352,0,0,0-3.394-3.28c-4.741-2.777-11.281-.854-14.706,3.435s-4.083,10.3-2.89,15.662a41.485,41.485,0,0,0,5.738,12.793c-.257.329-.525.648-.782.977a117.167,117.167,0,0,0-12.23,19.375,48.711,48.711,0,0,0-2.908-22.624c-2.783-6.715-8-12.37-12.595-18.175-5.519-6.973-16.835-3.93-17.807,4.909q-.014.128-.028.257,1.024.578,2,1.226a4.9,4.9,0,0,1-1.976,8.919l-.1.015a48.768,48.768,0,0,0,1.285,7.291,50.21,50.21,0,0,0,25,31.469c.4.206.792.411,1.193.607a119.6,119.6,0,0,0-6.438,30.3,113.428,113.428,0,0,0,.082,18.315l-.031-.216a29.975,29.975,0,0,0-10.232-17.308c-7.874-6.469-19-8.851-27.495-14.05a5.625,5.625,0,0,0-8.616,5.472q.017.114.035.227a32.934,32.934,0,0,1,3.692,1.779q1.024.578,2,1.226a4.9,4.9,0,0,1-1.976,8.919l-.1.015-.206.031a48.808,48.808,0,0,0,8.978,14.058A50.254,50.254,0,0,0,796.9,706.637h.01a119.561,119.561,0,0,0,8.032,23.447h28.692c.1-.319.2-.648.288-.967a32.6,32.6,0,0,1-7.939-.473c2.129-2.612,4.257-5.245,6.386-7.857a1.783,1.783,0,0,0,.134-.154c1.08-1.337,2.17-2.663,3.25-4v0a47.752,47.752,0,0,0-1.4-12.164Z" transform="translate(-324.645 -166.007)" fill="#f2f2f2"/>
    <path id="Path_8" data-name="Path 8" d="M723.864,729.9c-.083,0-.165,0-.248,0a8.169,8.169,0,0,1-7.7-8.255c0-12.795-9.14-20.259-18.2-21.979s-20.3,1.871-24.989,13.776l-4.265,10.707a19.672,19.672,0,0,1-27.787,0l-.252-.252.157-.321,75.334-154.134v-3.777a19.487,19.487,0,0,1,0-3.5l0-388.2a7.946,7.946,0,0,1,8.19-7.943,8.169,8.169,0,0,1,7.7,8.255V562.2a19.493,19.493,0,0,1,0,3.5l0,3.731L807.3,723.889l-.252.252a19.672,19.672,0,0,1-27.787,0l-.112-.17-4.153-10.537c-4.691-11.9-15.93-15.493-24.989-13.776s-18.2,9.185-18.2,21.979v.313a7.947,7.947,0,0,1-7.943,7.946Z" transform="translate(-324.645 -166.007)" fill="#e6e6e6"/>
    <path id="Path_9" data-name="Path 9" d="M861.763,446.993H585.96A12.106,12.106,0,0,1,573.867,434.9V242.073A12.106,12.106,0,0,1,585.96,229.98h275.8a12.106,12.106,0,0,1,12.092,12.093V434.9a12.106,12.106,0,0,1-12.092,12.092Z" transform="translate(-324.645 -166.007)" fill="#fff"/>
    <path id="Path_11" data-name="Path 11" d="M764.64,242.036H683.083a19.525,19.525,0,0,1-19.5-19.5v-.355H784.143v.355A19.525,19.525,0,0,1,764.64,242.036Z" transform="translate(-324.645 -166.007)" fill="#e6e6e6"/>
    <path id="Path_12" data-name="Path 12" d="M764.994,459.049H683.437a19.525,19.525,0,0,1-19.5-19.5v-.355H784.5v.355a19.525,19.525,0,0,1-19.5,19.5Z" transform="translate(-324.645 -166.007)" fill="#e6e6e6"/>
    <path id="Path_13" data-name="Path 13" d="M874.315,730.889a1.187,1.187,0,0,1-1.19,1.19H325.835a1.19,1.19,0,1,1,0-2.38h547.29a1.187,1.187,0,0,1,1.19,1.19Z" transform="translate(-324.645 -166.007)" fill="#ccc"/>
    <path id="Path_14" data-name="Path 14" d="M184.306,537.181h14.416l6.858-55.606H184.3Z" fill="#9e616a"/>
    <path id="Path_15" data-name="Path 15" d="M504.069,696.077l22.789-1.36v9.764l21.666,14.964a6.1,6.1,0,0,1-3.466,11.118H517.927l-4.676-9.658-1.826,9.658H501.2Z" transform="translate(-324.645 -166.007)" fill="#2f2e41"/>
    <path id="Path_16" data-name="Path 16" d="M135.277,227.892l-1.412,6.73-1.2,24.825,48.244-6.532,3.705-28.746-5.121-8.414Z" fill="#9e616a"/>
    <path id="Path_17" data-name="Path 17" d="M111.347,537.181h14.416l6.858-55.606H111.344Z" fill="#9e616a"/>
    <path id="Path_18" data-name="Path 18" d="M428.171,604.948V604.8l5.4-25.192,3.328-12.541-9.249-73.429c-2.178-53.349,28.772-78.993,29.016-79.245l.671-.7,49.636-1.215c26.706,16,23.683,103.519,28.573,163.039.349,4.244,4.731,10.509,3.654,14.546-8.546,32.027-6.043,66.661-12.553,67.685l-19.961-.277-10.309-46.789L505.888,575c-4.221-.778-7.137-21.412-7.137-21.412-1.839-2.184-8.188-20.756-8.188-20.756l-8.466-51.41-13.6,88.424,3.276,20.744-2.711,7.133-11.608,58.886-.123.949-21.886-2.184Z" transform="translate(-324.645 -166.007)" fill="#2f2e41"/>
    <path id="Path_19" data-name="Path 19" d="M431.11,696.077l22.789-1.36v9.764l21.666,14.964a6.1,6.1,0,0,1-3.466,11.118H444.968l-4.676-9.658-1.826,9.658h-10.23Z" transform="translate(-324.645 -166.007)" fill="#2f2e41"/>
    <path id="Path_20" data-name="Path 20" d="M499.723,296.813l12.168,13.52,14.615,27.547-7.179,33.968,3.139,15.94L527.1,405.31c-17.859,9.879-39.074-3.764-58.564-9.824l-19.176,8.472,1.014-23.322.52-58.76A16.469,16.469,0,0,1,468.627,305.6h0l12.844-9.464Z" transform="translate(-324.645 -166.007)" fill="rgb(21,30,82)"/>
    <circle id="Ellipse_1" data-name="Ellipse 1" cx="25.657" cy="25.657" r="25.657" transform="translate(146.013 72.415)" fill="#9e616a"/>
    <path id="Path_21" data-name="Path 21" d="M526.506,254.82c-.452,2.514-11.253,3.727-10.928-.745-2.1,4.211-5.242,10.322-1.242,17.322a10.983,10.983,0,0,0-1.482,12.813,33.159,33.159,0,0,1,2.847,5.845,8.879,8.879,0,0,1,.325,1.515,2.9,2.9,0,0,1-4.124,2.974c-10.88-5.329-29.854-4.426-41.758-1.174q.119-3.473-.1-6.931a17.133,17.133,0,0,1-3.378,7.914c-2.038.6-4.036,1.229-5.971,1.848a1.715,1.715,0,0,1-2.181-2.094,9.647,9.647,0,0,0,.206-4.2c-.492-2.9-1.951-5.527-2.982-8.279s-1.618-5.916-.357-8.573c1.959-4.124,7.478-5.385,9.913-9.247,2.736-4.338.611-9.992,1.039-15.107.6-7.232,6.527-13.109,13.2-15.948,11.562-4.917,26.027-.935,34.7,8.153a7.938,7.938,0,0,1,8.3-.357c2.562,1.372,4.4,2.086,5.551,4.758C529.1,247.651,526.966,252.3,526.506,254.82Z" transform="translate(-324.645 -166.007)" fill="#2f2e41"/>
    <path id="Path_22" data-name="Path 22" d="M515.486,556.54l-60.365-60.365a3.747,3.747,0,0,1,0-5.293l42.2-42.2a3.747,3.747,0,0,1,5.293,0l60.364,60.365a3.747,3.747,0,0,1,0,5.293l-42.2,42.2a3.747,3.747,0,0,1-5.293,0Z" transform="translate(-324.645 -166.007)" fill="#fff"/>
    <path id="Path_23" data-name="Path 23" d="M518.133,558.633a4.71,4.71,0,0,1-3.354-1.387l-60.365-60.363a4.746,4.746,0,0,1,0-6.707l42.2-42.2a4.746,4.746,0,0,1,6.708,0l60.364,60.364a4.746,4.746,0,0,1,0,6.707l-42.2,42.2a4.71,4.71,0,0,1-3.353,1.386ZM499.972,448.584a2.719,2.719,0,0,0-1.939.8l-42.2,42.2a2.747,2.747,0,0,0,0,3.879l60.365,60.364a2.815,2.815,0,0,0,3.879,0l42.2-42.2a2.747,2.747,0,0,0,0-3.879l-60.365-60.364a2.721,2.721,0,0,0-1.939-.8Z" transform="translate(-324.645 -166.007)" fill="#e6e6e6"/>
    <path id="Path_24" data-name="Path 24" d="M492.742,454.293a11.226,11.226,0,0,1,3.6-16.835l.95-100.813,18.842,8.647-4.144,97.5a11.287,11.287,0,0,1-19.243,11.5Z" transform="translate(-324.645 -166.007)" fill="#9e616a"/>
    <path id="Path_25" data-name="Path 25" d="M493.249,311.121s18.329-8.891,20.864,7.884,12.961,60.433,12.961,60.433L495.435,377.2Z" transform="translate(-324.645 -166.007)" fill="#9e616a"/>
    <path id="Path_26" data-name="Path 26" d="M492.742,454.293a11.226,11.226,0,0,1,3.6-16.835l.95-100.813,18.842,8.647-4.144,97.5a11.287,11.287,0,0,1-19.243,11.5Z" transform="translate(-324.645 -166.007)" fill="#9e616a"/>
    <path id="Path_27" data-name="Path 27" d="M493.249,311.121s18.329-8.891,20.864,7.884,12.961,60.433,12.961,60.433L495.435,377.2Z" transform="translate(-324.645 -166.007)" fill="rgb(21,30,82)"/>
    <g id="Group_1" data-name="Group 1">
      <path id="Path_10" data-name="Path 10" d="M861.763,448.493H585.96A13.608,13.608,0,0,1,572.367,434.9V242.072A13.608,13.608,0,0,1,585.96,228.48h275.8a13.608,13.608,0,0,1,13.592,13.592V434.9A13.608,13.608,0,0,1,861.763,448.493ZM585.96,231.48a10.6,10.6,0,0,0-10.593,10.592V434.9a10.6,10.6,0,0,0,10.593,10.592h275.8A10.6,10.6,0,0,0,872.355,434.9V242.072a10.6,10.6,0,0,0-10.592-10.592Z" transform="translate(-324.645 -166.007)" fill="#f2f2f2"/>
      <text id="Review_s" data-name="Review&apos;s" transform="translate(399 116)" fill="#e6e6e6" stroke="#e6e6e6" stroke-width="1" font-size="40" font-family="Poppins-Regular, Poppins"><tspan x="-83.12" y="42">Review&apos;s</tspan></text>
    </g>
  </g>
</svg>
