<svg xmlns="http://www.w3.org/2000/svg" width="887.999" height="741.048" viewBox="0 0 887.999 741.048">
  <g id="vip" transform="translate(-229 -184)">
    <path id="Path_1" data-name="Path 1" d="M521.9,253.856h-4.032V143.4a63.927,63.927,0,0,0-63.928-63.927H219.927A63.927,63.927,0,0,0,156,143.4V749.357a63.927,63.927,0,0,0,63.927,63.927h234.01a63.927,63.927,0,0,0,63.927-63.927V332.478H521.9Z" transform="translate(73 104.524)" fill="#e6e6e6"/>
    <path id="Path_2" data-name="Path 2" d="M456.516,96.107H425.97a22.681,22.681,0,0,1-21,31.247H270.91a22.681,22.681,0,0,1-21-31.247H221.38a47.74,47.74,0,0,0-47.74,47.74V748.912a47.74,47.74,0,0,0,47.74,47.74H456.516a47.74,47.74,0,0,0,47.74-47.74V143.848a47.74,47.74,0,0,0-47.741-47.741Z" transform="translate(73 104.524)" fill="#fff"/>
    <path id="Path_5" data-name="Path 5" d="M278.425,292.166H249.234a3,3,0,0,0-2.962,3.453l4.411,28.673h25.33l5.358-28.577a3,3,0,0,0-2.946-3.549Z" transform="translate(73 104.524)" fill="#fff"/>
    <path id="Path_8" data-name="Path 8" d="M434.71,442.4H405.518a3,3,0,0,0-2.962,3.453l4.411,28.673H432.3l5.358-28.577a3,3,0,0,0-2.946-3.549Z" transform="translate(73 104.524)" fill="#fff"/>
    <rect id="Rectangle_1" data-name="Rectangle 1" width="15.179" height="7.59" transform="translate(312.137 721.753)" fill="#fff"/>
    <rect id="Rectangle_2" data-name="Rectangle 2" width="15.179" height="7.59" transform="translate(343.137 721.753)" fill="#fff"/>
    <rect id="Rectangle_3" data-name="Rectangle 3" width="15.179" height="7.59" transform="translate(374.137 721.753)" fill="#fff"/>
    <path id="Path_17" data-name="Path 17" d="M410.32,596.668H381.129a3,3,0,0,0-2.962,3.453l4.411,28.673h25.33l5.358-28.577a3,3,0,0,0-2.946-3.549Z" transform="translate(73 104.524)" fill="#fff"/>
    <circle id="Ellipse_1" data-name="Ellipse 1" cx="20.166" cy="20.166" r="20.166" transform="translate(420.726 365.816)" fill="#fff"/>
    <circle id="Ellipse_2" data-name="Ellipse 2" cx="20.166" cy="20.166" r="20.166" transform="translate(344.096 513.026)" fill="#fff"/>
    <circle id="Ellipse_3" data-name="Ellipse 3" cx="20.166" cy="20.166" r="20.166" transform="translate(468.115 372.874)" fill="#fff"/>
    <circle id="Ellipse_4" data-name="Ellipse 4" cx="20.166" cy="20.166" r="20.166" transform="translate(468.115 367.832)" fill="#fff"/>
    <circle id="Ellipse_6" data-name="Ellipse 6" cx="20.166" cy="20.166" r="20.166" transform="translate(1005.707 769.816)" fill="#fff"/>
    <path id="Path_24" data-name="Path 24" d="M623.262,536.554h-7.5a.994.994,0,0,0-.994.994v3.292a.994.994,0,0,0,.994.994H617v4.932h5.014v-4.932h1.243a.994.994,0,0,0,.994-.994v-3.292a.994.994,0,0,0-.994-.994Z" transform="translate(73 104.524)" fill="#e6e6e6"/>
    <path id="Path_26" data-name="Path 26" d="M621.7,537.627a2.145,2.145,0,0,1-4.291,0" transform="translate(73 104.524)" opacity="0.2"/>
    <rect id="Rectangle_7" data-name="Rectangle 7" width="15.124" height="10.083" transform="translate(685.161 676.368)" fill="#fff"/>
    <path id="Path_30" data-name="Path 30" d="M869.355,714.273H840.164a3,3,0,0,0-2.962,3.453l4.411,28.673h25.33l5.358-28.577a3,3,0,0,0-2.946-3.549Z" transform="translate(73 104.524)" fill="#fff"/>
    <circle id="Ellipse_7" data-name="Ellipse 7" cx="20.166" cy="20.166" r="20.166" transform="translate(832.04 782.873)" fill="#fff"/>
    <path id="Path_32" data-name="Path 32" d="M322.243,328.466l18.787-1.708,11.956-29.034-21.349-11.956Z" transform="translate(229 184)" fill="#ffb8b8"/>
    <path id="Path_33" data-name="Path 33" d="M650.66,487.65h0a10.593,10.593,0,0,0-9.2-14.517l-29.17-1.739-4.295,14.282,30.029,8.247A10.593,10.593,0,0,0,650.66,487.65Z" transform="translate(73 104.524)" fill="#ffb8b8"/>
    <path id="Path_34" data-name="Path 34" d="M619.339,494.163l-.321-26.8-64.793-10.339L504.31,399.777a16.338,16.338,0,0,0-21.294-2.912h0a16.338,16.338,0,0,0-2.846,24.922l41.18,50.678Z" transform="translate(73 104.524)" fill="#575a89"/>
    <path id="Path_35" data-name="Path 35" d="M463.726,795.643h17.079l42.363-191.534,43.887,59.169,25.619,128.095H608.9l-3.416-137.488L548.268,507H491.906c-15.4,27.875-27.485,56.608-13.664,86.25Z" transform="translate(73 104.524)" fill="#2f2e41"/>
    <path id="Path_36" data-name="Path 36" d="M582.2,807.276a4.457,4.457,0,0,0,3.476,5.718l41.793,7.417a6.876,6.876,0,0,0,7.8-4.713h0a6.834,6.834,0,0,0-3.342-8.126,63.9,63.9,0,0,1-23.048-20.038c-4.593,4.277-9.727,3.875-15.179.723l-5.782.723Z" transform="translate(73 104.524)" fill="#2f2e41"/>
    <path id="Path_37" data-name="Path 37" d="M455.818,807.276a4.457,4.457,0,0,0,3.476,5.718l41.793,7.417a6.876,6.876,0,0,0,7.8-4.713h0a6.834,6.834,0,0,0-3.342-8.126A63.9,63.9,0,0,1,482.5,787.534c-4.593,4.277-9.727,3.875-15.179.723l-5.782.723Z" transform="translate(73 104.524)" fill="#2f2e41"/>
    <circle id="Ellipse_8" data-name="Ellipse 8" cx="23.911" cy="23.911" r="23.911" transform="translate(558.502 444.576)" fill="#ffb8b8"/>
    <path id="Path_38" data-name="Path 38" d="M488.064,513.407,550.4,511.7,532.1,454.079c11.377-18.239-.073-36.46-16.278-54.677l-12.81-8.54-20.5-1.708h0a50.314,50.314,0,0,0-13.549,35.05C469.369,452.032,474.3,482.324,488.064,513.407Z" transform="translate(73 104.524)" fill="#575a89"/>
    <path id="Path_39" data-name="Path 39" d="M631.291,552.192h0a10.593,10.593,0,0,0-2.749-16.966l-26.133-13.075-9.567,11.441,24.363,19.4a10.593,10.593,0,0,0,14.086-.8Z" transform="translate(73 104.524)" fill="#ffb8b8"/>
    <path id="Path_40" data-name="Path 40" d="M599.933,545.858l10.248-24.765-55.5-34.994-23.37-72.268a16.338,16.338,0,0,0-18.432-11.054h0a16.338,16.338,0,0,0-12.421,21.793l17.923,62.791Z" transform="translate(73 104.524)" fill="#575a89"/>
    <path id="Path_41" data-name="Path 41" d="M470.13,354.569c0,9.3,6.042,23.712,13.664,29.889,5.128,4.156,11.9,3.981,14.517-1.708,2.68-5.836,11.919-19.552,28.181-28.181,21.678-11.5-7.688-31.181-28.181-28.181C482.911,328.643,470.13,339.005,470.13,354.569Z" transform="translate(73 104.524)" fill="#2f2e41"/>
    <circle id="Ellipse_9" data-name="Ellipse 9" cx="17.079" cy="17.079" r="17.079" transform="translate(540.569 412.126)" fill="#2f2e41"/>
    <path id="Path_42" data-name="Path 42" d="M504.289,318.7a17.069,17.069,0,0,0-15.8-17.015c.424-.032.849-.065,1.281-.065a17.079,17.079,0,0,1,0,34.159c-.432,0-.857-.033-1.281-.065a17.069,17.069,0,0,0,15.8-17.015Z" transform="translate(73 104.524)" fill="#2f2e41"/>
    <ellipse id="Ellipse_10" data-name="Ellipse 10" cx="3.843" cy="5.124" rx="3.843" ry="5.124" transform="translate(578.997 466.779)" fill="#ffb8b8"/>
    <path id="Path_43" data-name="Path 43" d="M837.751,684.845H571.879l-56.3-266.151H467.529V406.752h57.729l56.3,266.15H837.751Z" transform="translate(229 184)" fill="#3f3d56"/>
    <circle id="Ellipse_11" data-name="Ellipse 11" cx="25.591" cy="25.591" r="25.591" transform="translate(814.25 866.286)" fill="#3f3d56"/>
    <circle id="Ellipse_12" data-name="Ellipse 12" cx="25.591" cy="25.591" r="25.591" transform="translate(1005.332 866.286)" fill="#3f3d56"/>
    <path id="Path_44" data-name="Path 44" d="M988.9,758.7H730.225L684.584,533.145h347.151a12.265,12.265,0,0,1,12.116,14.167l-42.833,201.025A12.2,12.2,0,0,1,988.9,758.7Zm-255.869-3.412H988.9a8.806,8.806,0,0,0,8.742-7.477l42.833-201.025a8.85,8.85,0,0,0-8.744-10.225H688.726Z" transform="translate(73 104.524)" fill="#3f3d56"/>
    <path id="Path_45" data-name="Path 45" d="M624.513,678.5l-29.89-222.846,3.366-.556,29.89,222.846Z" transform="translate(229 184)" fill="#3f3d56"/>
    <path id="Path_46" data-name="Path 46" d="M790.712,676.788l-3.369-.546L816.36,455.1l3.369.546Z" transform="translate(229 184)" fill="#3f3d56"/>
    <rect id="Rectangle_8" data-name="Rectangle 8" width="3.412" height="222.846" transform="translate(937.115 639.375)" fill="#3f3d56"/>
    <rect id="Rectangle_9" data-name="Rectangle 9" width="3.412" height="330.296" transform="translate(775.005 702.497) rotate(-89.861)" fill="#3f3d56"/>
    <rect id="Rectangle_10" data-name="Rectangle 10" width="290.178" height="3.412" transform="translate(791.835 806.477) rotate(-0.392)" fill="#3f3d56"/>
    <ellipse id="Ellipse_13" data-name="Ellipse 13" cx="18.767" cy="10.237" rx="18.767" ry="10.237" transform="translate(682.881 584.781)" fill="#3f3d56"/>
  </g>
</svg>
